<svg width="156" height="56" viewBox="0 0 156 56" fill="none" xmlns="http://www.w3.org/2000/svg"><path d="M32.582 25.506a5.927 5.927 0 00-.776 2.855 5.727 5.727 0 00.96 3.166 5.75 5.75 0 002.553 2.113 13.14 13.14 0 01-1.827 3.71c-1.076 1.606-2.205 3.175-3.996 3.204-.852.02-1.427-.225-2.026-.48-.625-.265-1.276-.542-2.295-.542-1.081 0-1.762.286-2.418.561-.567.238-1.116.469-1.89.5-1.705.064-3.009-1.713-4.124-3.303-2.23-3.248-3.966-9.153-1.638-13.172a6.386 6.386 0 012.258-2.344 6.41 6.41 0 013.124-.93c.968-.019 1.896.353 2.71.679.622.25 1.178.472 1.633.472.4 0 .94-.214 1.569-.463.991-.392 2.204-.872 3.44-.743a6.11 6.11 0 014.803 2.59 5.945 5.945 0 00-2.06 2.127zM29.86 14.464a5.836 5.836 0 01-1.341 4.189 4.932 4.932 0 01-3.895 1.836A5.548 5.548 0 0126 16.456a5.971 5.971 0 013.86-1.992z" fill="#fff"/><path fill-rule="evenodd" clip-rule="evenodd" d="M55.905 36.567H50.21l-1.368 4.028H46.43l5.395-14.901h2.507l5.395 14.901h-2.454l-1.367-4.028zM50.8 34.71h4.515l-2.225-6.537h-.063L50.8 34.709zm20.578.453c0 3.377-1.813 5.546-4.547 5.546a3.702 3.702 0 01-3.428-1.901h-.052v5.381h-2.236V29.731h2.164v1.807h.042a3.859 3.859 0 013.469-1.921c2.765 0 4.588 2.18 4.588 5.546zm-2.3 0c0-2.2-1.139-3.645-2.878-3.645-1.709 0-2.858 1.476-2.858 3.645 0 2.19 1.15 3.656 2.858 3.656 1.739 0 2.879-1.436 2.879-3.656zm14.291 0c0 3.377-1.812 5.546-4.547 5.546a3.702 3.702 0 01-3.428-1.901h-.052v5.381h-2.236V29.731h2.165v1.807h.041a3.859 3.859 0 013.47-1.921c2.764 0 4.587 2.18 4.587 5.546zm-2.299 0c0-2.2-1.14-3.645-2.879-3.645-1.709 0-2.858 1.476-2.858 3.645 0 2.19 1.15 3.656 2.858 3.656 1.74 0 2.88-1.436 2.88-3.656z" fill="#fff"/><path d="M91.294 36.443c.166 1.478 1.606 2.448 3.573 2.448 1.885 0 3.24-.97 3.24-2.303 0-1.156-.817-1.849-2.754-2.323l-1.936-.466c-2.744-.66-4.018-1.94-4.018-4.017 0-2.571 2.247-4.337 5.437-4.337 3.158 0 5.323 1.766 5.395 4.337h-2.257c-.135-1.487-1.368-2.385-3.17-2.385-1.801 0-3.034.909-3.034 2.23 0 1.054.788 1.674 2.714 2.149l1.646.403c3.066.723 4.34 1.95 4.34 4.13 0 2.788-2.227 4.534-5.769 4.534-3.314 0-5.551-1.705-5.696-4.4h2.29zm14.002-9.283v2.57h2.072v1.767h-2.072v5.99c0 .93.415 1.363 1.326 1.363.246-.004.491-.021.736-.051v1.755c-.41.076-.826.11-1.243.103-2.205 0-3.066-.826-3.066-2.933v-6.227h-1.584V29.73h1.584v-2.572h2.247z" fill="#fff"/><path fill-rule="evenodd" clip-rule="evenodd" d="M108.568 35.163c0-3.418 2.019-5.566 5.167-5.566 3.159 0 5.169 2.148 5.169 5.566 0 3.428-1.999 5.567-5.169 5.567-3.168 0-5.167-2.139-5.167-5.567zm8.057 0c0-2.344-1.078-3.728-2.89-3.728s-2.888 1.394-2.888 3.728c0 2.355 1.076 3.728 2.888 3.728 1.812 0 2.89-1.373 2.89-3.728z" fill="#fff"/><path d="M120.747 29.73h2.133v1.85h.052a2.603 2.603 0 012.621-1.963 3.47 3.47 0 01.766.083v2.086a3.133 3.133 0 00-1.005-.135 2.255 2.255 0 00-2.232 1.543 2.247 2.247 0 00-.098.957v6.444h-2.237V29.731z" fill="#fff"/><path fill-rule="evenodd" clip-rule="evenodd" d="M136.63 37.404c-.301 1.972-2.227 3.326-4.692 3.326-3.169 0-5.136-2.118-5.136-5.515 0-3.408 1.978-5.618 5.042-5.618 3.015 0 4.91 2.065 4.91 5.359v.764h-7.695v.135a2.824 2.824 0 00.769 2.198 2.85 2.85 0 002.162.88 2.469 2.469 0 002.516-1.529h2.124zm-7.56-3.243h5.447a2.608 2.608 0 00-.732-1.96 2.622 2.622 0 00-1.941-.797 2.764 2.764 0 00-2.565 1.699c-.139.336-.21.695-.209 1.058z" fill="#fff"/><path d="M50.17 15.504h-.96v.972h.99c1 0 1.573.437 1.573 1.147 0 .7-.608 1.196-1.538 1.196-.931 0-1.562-.442-1.627-1.127h-1.07a2.375 2.375 0 00.897 1.63 2.389 2.389 0 001.8.489 2.403 2.403 0 002.4-1.226c.153-.28.249-.587.281-.903.018-.44-.14-.87-.44-1.195a1.674 1.674 0 00-1.157-.537v-.084a1.668 1.668 0 001.305-1.638c0-1.136-.996-1.925-2.41-1.925a2.257 2.257 0 00-2.297 1.211c-.14.275-.221.575-.24.883h1.054a1.273 1.273 0 01.943-1.09c.165-.045.337-.055.507-.031.844 0 1.343.426 1.343 1.087a1.201 1.201 0 01-.861 1.1c-.16.048-.328.061-.493.04z" fill="#fff"/><path fill-rule="evenodd" clip-rule="evenodd" d="M56.148 16.496c-1.288.08-2.015.64-2.015 1.613a1.628 1.628 0 001.13 1.546c.218.07.448.095.676.071a1.826 1.826 0 001.627-.848h.085v.76h1.03v-3.693c0-1.141-.766-1.816-2.124-1.816-1.23 0-2.106.596-2.215 1.524h1.035c.12-.382.532-.6 1.13-.6.732 0 1.109.321 1.109.892v.466l-1.468.085zm1.468.7v.451a1.271 1.271 0 01-.897 1.131c-.164.05-.336.068-.506.05-.582 0-1.005-.282-1.005-.769 0-.476.338-.73 1.084-.78l1.324-.084z" fill="#fff"/><path d="M61.52 19.637v-4.506h2.498v-.897H60.45v5.403h1.07z" fill="#fff"/><path fill-rule="evenodd" clip-rule="evenodd" d="M68.26 19.726c1.368 0 2.24-1.076 2.24-2.793s-.872-2.79-2.25-2.79a1.887 1.887 0 00-1.702.984h-.08v-.893h-1.03v7.2h1.07v-2.616h.085a1.764 1.764 0 001.667.908zm-.309-4.624c.906 0 1.448.69 1.448 1.831 0 1.146-.542 1.836-1.452 1.836-.896 0-1.459-.705-1.459-1.831 0-1.132.563-1.836 1.463-1.836z" fill="#fff"/><path d="M71.923 20.654v.918c.1.015.354.025.443.025 1.105 0 1.618-.422 2.08-1.737l2.02-5.626h-1.133l-1.354 4.292h-.085l-1.358-4.292H71.37l1.961 5.423-.08.263a.924.924 0 01-.98.754 2.544 2.544 0 01-.349-.02zm6.442-2.55H77.3c.099 1.091 1.06 1.632 2.243 1.632 1.339 0 2.215-.68 2.215-1.707a1.21 1.21 0 00-1.06-1.215v-.085a1.114 1.114 0 00.856-1.106c0-.913-.737-1.494-2.025-1.494a1.903 1.903 0 00-1.392.356c-.4.296-.666.737-.743 1.227h1.03c.07-.427.507-.68 1.105-.68.657 0 .975.303.975.7 0 .452-.329.7-.975.7h-.797v.828h.811c.757 0 1.15.248 1.15.77 0 .486-.438.798-1.15.798-.626 0-1.074-.248-1.178-.724zm4.933-3.87v5.403h1.06l2.502-3.736h.08v3.736H88v-5.403h-1.06l-2.497 3.716h-.085v-3.716h-1.06zm8.835.897h1.707v-.897h-4.484v.897h1.707v4.506h1.07v-4.506z" fill="#fff"/><path fill-rule="evenodd" clip-rule="evenodd" d="M98.71 19.385a2.19 2.19 0 00.89-1.207h-1.03a1.297 1.297 0 01-1.288.655 1.435 1.435 0 01-1.37-.962 1.423 1.423 0 01-.073-.586v-.06h3.826v-.372c0-1.697-.91-2.724-2.419-2.724a2.505 2.505 0 00-1.895.843 2.49 2.49 0 00-.603 1.98 2.447 2.447 0 00.604 1.973 2.46 2.46 0 001.9.816 2.2 2.2 0 001.458-.356zm-.136-2.948h-2.736a1.379 1.379 0 011.404-1.4 1.309 1.309 0 011.332 1.4zm8.003-2.203h-2.443v5.403h2.468c1.189 0 1.9-.615 1.9-1.558a1.236 1.236 0 00-1.159-1.246v-.084a1.166 1.166 0 00.916-1.141c0-.839-.622-1.374-1.682-1.374zm-1.383 2.217v-1.399h1.179c.567 0 .836.273.836.694 0 .457-.309.705-.955.705h-1.06zm0 2.367v-1.583h1.134c.722 0 1.105.253 1.105.794 0 .511-.339.79-.971.79h-1.268z" fill="#fff"/><rect x="1" y="1" width="154" height="54" rx="7" stroke="#fff" stroke-opacity=".3" stroke-width="2"/></svg>