<svg width="14" height="10" viewBox="0 0 14 10" fill="none" xmlns="http://www.w3.org/2000/svg">
<path d="M9.64645 8.22493C9.45118 8.42019 9.45118 8.73678 9.64645 8.93204C9.84171 9.1273 10.1583 9.1273 10.3536 8.93204L13.8536 5.43204C14.0488 5.23678 14.0488 4.9202 13.8536 4.72493L10.1967 1.06808C10.0014 0.872815 9.68485 0.872815 9.48959 1.06808C9.29433 1.26334 9.29433 1.57992 9.48959 1.77518L12.293 4.57856L0.5 4.57856C0.223858 4.57856 2.41412e-08 4.80242 0 5.07856C-2.41411e-08 5.3547 0.223858 5.57856 0.5 5.57856L12.2928 5.57856L9.64645 8.22493Z" fill="#FFFFFF"/>
</svg>
