<svg xmlns="http://www.w3.org/2000/svg" width="265.037" height="71.97" viewBox="0 0 265.037 71.97"><defs><linearGradient id="b" x1="1" y1=".5" x2=".327" y2=".5" gradientUnits="objectBoundingBox"><stop offset="0" stop-color="#71d6c8"/><stop offset="1" stop-color="#ffdecb"/></linearGradient><clipPath id="a"><path fill="none" d="M0 0h119.671v9.734H0z"/></clipPath></defs><path d="M83.956 1.216a36.288 36.288 0 0125.838 10.235 35.465 35.465 0 017.766 11.273 34.1 34.1 0 012.791 13.849 33.962 33.962 0 01-2.792 13.85 35.143 35.143 0 01-19.325 18.75 35.787 35.787 0 01-14.315 2.791H56.865V1.216zm9.09 55.684a19.719 19.719 0 006.871-4.688 22.188 22.188 0 004.4-7.157 22.76 22.76 0 001.575-8.589 23.118 23.118 0 00-1.575-8.66 21.83 21.83 0 00-4.4-6.978 21.007 21.007 0 00-6.871-4.688 24.049 24.049 0 00-9.09-1.825H71.323V58.69h12.633a21.472 21.472 0 009.09-1.789M21.472 0a21.472 21.472 0 1021.472 21.472A21.472 21.472 0 0021.472 0m0 30.49a8.875 8.875 0 116.42-2.6 8.875 8.875 0 01-6.42 2.6M148.3 16.605v9.054h-2.791V5.762h2.791v8.446h2l6.697-8.446h3.364l-7.658 9.412 7.946 10.485h-3.33l-6.943-9.054zm27.341-8.41h-7.157v3.579c-.322 8.625-1.682 14.028-5.762 14.028h-.823v-2.54h.394c2.648 0 3.328-5.654 3.579-12.454V5.762h12.487v19.9h-2.825zm10.879 17.464h-2.791V5.762h2.791v15.782l10.701-15.782h2.791v19.9h-2.791V9.877zm21.544-17.32v17.32h-2.791V5.762h4.688l5.082 16.569 5.081-16.569h4.689v19.9h-2.792V8.339l-5.508 17.32h-2.937zm30.133-2.577l7.479 19.9h-3.006l-1.575-4.19h-9.125l-1.539 4.294h-2.863l7.372-19.9zm2.04 13.205l-3.579-10.378-3.58 10.378zm3.614-10.772V5.762h15.746v2.433h-6.477v17.464h-2.792V8.195zm-98.807 36.932a9.376 9.376 0 1118.645 0 9.376 9.376 0 11-18.645 0m15.782 0c0-5.153-2.827-7.945-6.477-7.945s-6.442 2.791-6.442 7.945 2.827 7.945 6.442 7.945 6.477-2.827 6.477-7.945m22.936 9.948h-2.789v-9.018h-10.45v9.018h-2.791V35.178h2.791v8.446h10.45v-8.446h2.789zm17.216-17.463h-7.162v3.579c-.322 8.625-1.682 14.028-5.762 14.028h-.818v-2.433h.394c2.648 0 3.328-5.654 3.579-12.454v-5.01h12.775v19.9h-2.827zm16.212-2.434l7.479 19.9h-3.006l-1.575-4.33h-8.946l-1.539 4.33h-2.863l7.372-19.9zm2 13.205l-3.575-10.378-3.579 10.378zm11.026 6.694h-2.791v-19.9h2.791v15.784l10.736-15.784h2.791v19.9h-2.791V39.366zm5.4-21.007c-3.149 0-4.688-1.4-4.974-3.292h1.968c0 1.038 1.181 1.646 2.9 1.646s2.723-.647 2.937-1.647h2.111c-.215 1.9-1.825 3.292-5.082 3.292m29.56 21.006h-2.791v-9.018h-10.45v9.018h-2.791V35.178h2.791v8.446h10.45v-8.446h2.791z" fill="#231f20"/><g transform="translate(145.044 62.233)" clip-path="url(#a)"><path fill="url(#b)" d="M0 0h119.671v9.734H0z"/></g></svg>