<svg width="170" height="37" viewBox="0 0 170 37" fill="none" xmlns="http://www.w3.org/2000/svg"><path d="M39.028.573H.568v35.855L39.028.573z" fill="#44C8F5"/><path d="M19.794.573H.567v17.935L19.794.573z" fill="#231F20"/><path d="M92.733 8.355l-5.02 20.283h8.87l5.016-20.283h-8.866zM72.474 20.11H70.44l3.28-5.85 1.064 5.85h-2.31zM71.212 8.353L59.805 28.635h5.866l1.894-3.38h8.144l.607 3.38h8.659l-3.68-20.282H71.211zm62.029.002l-5.007 20.283h8.868l5.008-20.283h-8.869zm-3.964 0h-9.089l-7.608 6.635 1.661-6.635h-8.502l-5.007 20.283h8.475l1.731-7.002 4.532 7.002h10.258l-7.598-10.622 11.147-9.66zm-76.432 9.218s-.576 6.587-6.132 6.587H43.57l2.768-10.94h2.853c1.02.007 3.975.274 3.654 4.353zm-.45-9.209L50.1 8.357H39.002l-5.007 20.275h11.02l4.36.006c6.14 0 12.18-4.618 12.18-11.69 0-8.322-9.16-8.584-9.16-8.584zm110.899-.012l-2.958 11.943-3.942-11.943h-9.864l-5.011 20.286h6.134l2.987-12.048 3.953 12.048h9.822l5.019-20.286h-6.14z" fill="#00A0E4"/></svg>