<svg width="165" height="56" viewBox="0 0 165 56" fill="none" xmlns="http://www.w3.org/2000/svg"><path fill-rule="evenodd" clip-rule="evenodd" d="M83.263 30.1a5.046 5.046 0 00-2.81.87 5.093 5.093 0 00-1.856 2.295 5.129 5.129 0 001.114 5.55 5.04 5.04 0 005.52 1.095 5.076 5.076 0 002.272-1.88 5.123 5.123 0 00.853-2.83 5.055 5.055 0 00-1.472-3.637 4.994 4.994 0 00-3.62-1.463zm0 8.196a3.064 3.064 0 01-1.764-.414 3.089 3.089 0 01-1.227-1.34 3.113 3.113 0 01.524-3.443 3.059 3.059 0 013.375-.774 3.08 3.08 0 011.417 1.134 3.11 3.11 0 01.537 1.74 2.97 2.97 0 01-.782 2.156 2.937 2.937 0 01-2.08.94zM72.16 30.1a5.046 5.046 0 00-2.813.865 5.094 5.094 0 00-1.861 2.291 5.13 5.13 0 001.106 5.554 5.04 5.04 0 005.522 1.1 5.076 5.076 0 002.273-1.878 5.122 5.122 0 00.853-2.832 5.055 5.055 0 00-1.47-3.637 4.994 4.994 0 00-3.622-1.463h.012zm0 8.196a3.062 3.062 0 01-1.767-.408 3.088 3.088 0 01-1.232-1.337 3.113 3.113 0 01.515-3.447 3.06 3.06 0 013.376-.78 3.08 3.08 0 011.42 1.134c.35.513.537 1.12.538 1.742a2.968 2.968 0 01-.782 2.155 2.936 2.936 0 01-2.08.94h.012z" fill="#fff"/><path d="M58.934 31.672v2.16h5.152a4.537 4.537 0 01-1.192 2.724 5.243 5.243 0 01-3.971 1.584 5.707 5.707 0 01-4.049-1.687 5.778 5.778 0 01-1.676-4.073c0-1.528.603-2.993 1.676-4.073a5.707 5.707 0 014.048-1.687 5.467 5.467 0 013.9 1.548l1.515-1.524a7.498 7.498 0 00-2.475-1.673 7.46 7.46 0 00-2.928-.571 7.838 7.838 0 00-3.11.512 7.876 7.876 0 00-2.661 1.697 7.933 7.933 0 00-1.789 2.61 7.974 7.974 0 001.789 8.824 7.878 7.878 0 002.662 1.696 7.84 7.84 0 003.11.513 7.115 7.115 0 002.987-.51 7.155 7.155 0 002.51-1.71 7.226 7.226 0 001.86-5.064 7.087 7.087 0 00-.119-1.356l-7.239.06z" fill="#fff"/><path fill-rule="evenodd" clip-rule="evenodd" d="M112.971 33.352a4.8 4.8 0 00-1.668-2.306 4.752 4.752 0 00-2.673-.946 4.75 4.75 0 00-3.484 1.51 4.831 4.831 0 00-1.287 3.59c-.014.67.106 1.337.353 1.96a4.988 4.988 0 002.734 2.77 4.938 4.938 0 001.946.37 5.02 5.02 0 002.393-.593 5.061 5.061 0 001.829-1.663l-1.73-1.2a2.884 2.884 0 01-2.492 1.416 2.562 2.562 0 01-1.465-.394 2.585 2.585 0 01-.992-1.154l6.786-2.82-.25-.54zm-6.917 1.704a2.79 2.79 0 01.146-1.095 2.782 2.782 0 012.501-1.881 1.972 1.972 0 011.884 1.08l-4.531 1.896z" fill="#fff"/><path d="M100.544 40h2.23V25h-2.23v15z" fill="#fff"/><path fill-rule="evenodd" clip-rule="evenodd" d="M96.894 31.24h-.083a3.578 3.578 0 00-2.671-1.2 5.067 5.067 0 00-3.433 1.58 5.129 5.129 0 00-1.402 3.526 5.13 5.13 0 001.402 3.526c.9.95 2.13 1.516 3.433 1.58a3.442 3.442 0 002.671-1.2h.071v.732c0 1.956-1.037 3-2.707 3a2.791 2.791 0 01-1.55-.515 2.818 2.818 0 01-1.002-1.297l-1.944.816c.366.895.99 1.66 1.79 2.197a4.81 4.81 0 002.706.815c2.612 0 4.77-1.548 4.77-5.316V30.4h-2.05v.84zm-4.559 6.059a3.084 3.084 0 002.004.996 2.823 2.823 0 002.01-.962 2.86 2.86 0 00.7-2.133 2.898 2.898 0 00-.705-2.122 2.862 2.862 0 00-2.002-.974 3.081 3.081 0 00-2.007.997 3.118 3.118 0 000 4.198zM118.087 25v15h2.23v-5.688h3.113a4.61 4.61 0 003.493-1.24 4.684 4.684 0 000-6.833 4.641 4.641 0 00-1.619-.986A4.609 4.609 0 00123.43 25h-5.343zm5.331 7.2h-3.113v-5.112h3.16c.679 0 1.33.271 1.809.754a2.582 2.582 0 010 3.64 2.548 2.548 0 01-1.809.754l-.047-.036zm13.75-2.16a4.154 4.154 0 00-2.326.549 4.19 4.19 0 00-1.645 1.743l1.98.828a2.1 2.1 0 012.027-1.104 2.134 2.134 0 011.595.463 2.164 2.164 0 01.79 1.469v.156a4.899 4.899 0 00-2.325-.576c-2.135 0-4.294 1.2-4.294 3.372a3.493 3.493 0 001.156 2.436 3.44 3.44 0 002.541.864 3.123 3.123 0 002.863-1.44h.071V40h2.147v-5.772c0-2.628-1.98-4.152-4.52-4.152l-.06-.036zm-.274 8.22c-.727 0-1.741-.372-1.741-1.272 0-1.2 1.264-1.596 2.385-1.596a3.937 3.937 0 012.027.504c-.074.65-.38 1.25-.859 1.691a2.688 2.688 0 01-1.752.709l-.06-.036z" fill="#fff"/><path d="M149.571 30.4l-2.552 6.504h-.071L144.3 30.4h-2.385l3.971 9.096-2.266 5.052h2.326l6.106-14.148h-2.481zM129.524 40h2.23V25h-2.23v15z" fill="#fff"/><path fill-rule="evenodd" clip-rule="evenodd" d="M51.337 21.124h.883V19.6h5.462v1.512h.883v-2.4h-.8V12.4h-4.77v3.564a3.451 3.451 0 01-.906 2.76h-.752v2.4zm1.86-2.364c.5-.83.736-1.792.68-2.76v-2.712h2.899v5.472h-3.578zm9.875.993c.984 0 1.927-.392 2.624-1.09a3.889 3.889 0 000-5.34 3.694 3.694 0 00-2.623-1.098 3.676 3.676 0 00-2.624 1.099 3.901 3.901 0 000 5.34 3.71 3.71 0 002.623 1.089zm0-.881c-.728 0-1.427-.29-1.943-.808a3.083 3.083 0 010-4.128 2.746 2.746 0 013.887 0 3.083 3.083 0 010 4.128 2.747 2.747 0 01-1.944.808z" fill="#fff"/><path d="M69.947 19.49c.456.185.946.276 1.438.266a3.736 3.736 0 001.622-.336c.46-.22.868-.54 1.192-.936l-.644-.648a2.83 2.83 0 01-2.182 1.068 2.694 2.694 0 01-1.98-.792 3.095 3.095 0 010-4.164 2.705 2.705 0 011.98-.792 2.371 2.371 0 011.992.912l.644-.624a3.305 3.305 0 00-2.624-1.2 3.627 3.627 0 00-2.657 1.079A3.674 3.674 0 0067.664 16a3.693 3.693 0 001.064 2.677c.347.35.762.627 1.219.813zm7.079.11h.918v-6.312h1.992V12.4h-4.914v.888h2.004V19.6zm6.524-1.128l2.707-6.072H85.17l-1.717 4.14-1.765-4.128h-1.085l2.385 5.316-.263.576a1.128 1.128 0 01-.322.456.843.843 0 01-.5.12.962.962 0 01-.477-.132l-.239.852c.226.1.47.153.716.156a1.794 1.794 0 001.026-.379c.294-.23.511-.546.62-.905zm8.92-6.072h-5.176v7.2h.918v-6.312h3.34V19.6h.918v-7.2zm2.552 0h-.918v7.2h.918v-3.252H98.6V19.6h.918v-7.2H98.6v3.084h-3.578V12.4z" fill="#fff"/><path fill-rule="evenodd" clip-rule="evenodd" d="M104.396 19.753a3.71 3.71 0 002.624-1.09 3.89 3.89 0 001.059-2.67 3.89 3.89 0 00-1.059-2.67 3.703 3.703 0 00-2.624-1.098 3.674 3.674 0 00-2.624 1.099 3.904 3.904 0 000 5.34 3.71 3.71 0 002.624 1.089zm0-.881c-.729 0-1.428-.29-1.944-.808a3.08 3.08 0 010-4.128 2.745 2.745 0 013.888 0 3.085 3.085 0 010 4.128 2.745 2.745 0 01-1.944.808zm10.018-6.472h-2.588v7.2l2.743-.048a2.197 2.197 0 001.526-.588 1.885 1.885 0 00.644-1.464 1.632 1.632 0 00-.346-1.032 1.81 1.81 0 00-.87-.624c.284-.126.528-.33.703-.588a1.58 1.58 0 00.263-.9 1.827 1.827 0 00-.62-1.404 2.092 2.092 0 00-1.455-.552zm0 3.084h-1.67l.048-2.232h1.705a1.017 1.017 0 01.799.348 1.067 1.067 0 01.203 1.193c-.06.13-.145.246-.251.343a1.068 1.068 0 01-.834.348zm.179 3.228h-1.849l.036-2.388h1.813c.316 0 .619.126.843.351.223.225.349.53.349.849a1.204 1.204 0 01-.334.816 1.092 1.092 0 01-.858.372z" fill="#fff"/><path clip-rule="evenodd" d="M83.263 30.1a5.046 5.046 0 00-2.81.87 5.093 5.093 0 00-1.856 2.295 5.129 5.129 0 001.114 5.55 5.04 5.04 0 005.52 1.095 5.076 5.076 0 002.272-1.88 5.123 5.123 0 00.853-2.83 5.055 5.055 0 00-1.472-3.637 4.994 4.994 0 00-3.62-1.463zm0 8.196a3.064 3.064 0 01-1.764-.414 3.089 3.089 0 01-1.227-1.34 3.113 3.113 0 01.524-3.443 3.059 3.059 0 013.375-.774 3.08 3.08 0 011.417 1.134 3.11 3.11 0 01.537 1.74 2.97 2.97 0 01-.782 2.156 2.937 2.937 0 01-2.08.94zM72.16 30.1a5.046 5.046 0 00-2.813.865 5.094 5.094 0 00-1.861 2.291 5.13 5.13 0 001.106 5.554 5.04 5.04 0 005.522 1.1 5.076 5.076 0 002.273-1.878 5.122 5.122 0 00.853-2.832 5.055 5.055 0 00-1.47-3.637 4.994 4.994 0 00-3.622-1.463h.012zm0 8.196a3.062 3.062 0 01-1.767-.408 3.088 3.088 0 01-1.232-1.337 3.113 3.113 0 01.515-3.447 3.06 3.06 0 013.376-.78 3.08 3.08 0 011.42 1.134c.35.513.537 1.12.538 1.742a2.968 2.968 0 01-.782 2.155 2.936 2.936 0 01-2.08.94h.012z" stroke="#fff" stroke-width=".2" stroke-miterlimit="10"/><path d="M58.934 31.672v2.16h5.152a4.537 4.537 0 01-1.192 2.724 5.243 5.243 0 01-3.971 1.584 5.707 5.707 0 01-4.049-1.687 5.778 5.778 0 01-1.676-4.073c0-1.528.603-2.993 1.676-4.073a5.707 5.707 0 014.048-1.687 5.467 5.467 0 013.9 1.548l1.515-1.524a7.498 7.498 0 00-2.475-1.673 7.46 7.46 0 00-2.928-.571 7.838 7.838 0 00-3.11.512 7.876 7.876 0 00-2.661 1.697 7.933 7.933 0 00-1.789 2.61 7.974 7.974 0 001.789 8.824 7.878 7.878 0 002.662 1.696 7.84 7.84 0 003.11.513 7.115 7.115 0 002.987-.51 7.155 7.155 0 002.51-1.71 7.226 7.226 0 001.86-5.064 7.087 7.087 0 00-.119-1.356l-7.239.06z" stroke="#fff" stroke-width=".2" stroke-miterlimit="10"/><path clip-rule="evenodd" d="M112.971 33.352a4.8 4.8 0 00-1.668-2.306 4.752 4.752 0 00-2.673-.946 4.75 4.75 0 00-3.484 1.51 4.831 4.831 0 00-1.287 3.59c-.014.67.106 1.337.353 1.96a4.988 4.988 0 002.734 2.77 4.938 4.938 0 001.946.37 5.02 5.02 0 002.393-.593 5.061 5.061 0 001.829-1.663l-1.73-1.2a2.884 2.884 0 01-2.492 1.416 2.562 2.562 0 01-1.465-.394 2.585 2.585 0 01-.992-1.154l6.786-2.82-.25-.54zm-6.917 1.704a2.79 2.79 0 01.146-1.095 2.782 2.782 0 012.501-1.881 1.972 1.972 0 011.884 1.08l-4.531 1.896z" stroke="#fff" stroke-width=".2" stroke-miterlimit="10"/><path d="M100.544 40h2.23V25h-2.23v15z" stroke="#fff" stroke-width=".2" stroke-miterlimit="10"/><path clip-rule="evenodd" d="M96.894 31.24h-.083a3.578 3.578 0 00-2.671-1.2 5.067 5.067 0 00-3.433 1.58 5.129 5.129 0 00-1.402 3.526 5.13 5.13 0 001.402 3.526c.9.95 2.13 1.516 3.433 1.58a3.442 3.442 0 002.671-1.2h.071v.732c0 1.956-1.037 3-2.707 3a2.791 2.791 0 01-1.55-.515 2.818 2.818 0 01-1.002-1.297l-1.944.816c.366.895.99 1.66 1.79 2.197a4.81 4.81 0 002.706.815c2.612 0 4.77-1.548 4.77-5.316V30.4h-2.05v.84zm-4.559 6.059a3.084 3.084 0 002.004.996 2.823 2.823 0 002.01-.962 2.86 2.86 0 00.7-2.133 2.898 2.898 0 00-.705-2.122 2.862 2.862 0 00-2.002-.974 3.081 3.081 0 00-2.007.997 3.118 3.118 0 000 4.198zM118.087 25v15h2.23v-5.688h3.113a4.61 4.61 0 003.493-1.24 4.684 4.684 0 000-6.833 4.641 4.641 0 00-1.619-.986A4.609 4.609 0 00123.43 25h-5.343zm5.331 7.2h-3.113v-5.112h3.16c.679 0 1.33.271 1.809.754a2.582 2.582 0 010 3.64 2.548 2.548 0 01-1.809.754l-.047-.036zm13.75-2.16a4.154 4.154 0 00-2.326.549 4.19 4.19 0 00-1.645 1.743l1.98.828a2.1 2.1 0 012.027-1.104 2.134 2.134 0 011.595.463 2.164 2.164 0 01.79 1.469v.156a4.899 4.899 0 00-2.325-.576c-2.135 0-4.294 1.2-4.294 3.372a3.493 3.493 0 001.156 2.436 3.44 3.44 0 002.541.864 3.123 3.123 0 002.863-1.44h.071V40h2.147v-5.772c0-2.628-1.98-4.152-4.52-4.152l-.06-.036zm-.274 8.22c-.727 0-1.741-.372-1.741-1.272 0-1.2 1.264-1.596 2.385-1.596a3.937 3.937 0 012.027.504c-.074.65-.38 1.25-.859 1.691a2.688 2.688 0 01-1.752.709l-.06-.036z" stroke="#fff" stroke-width=".2" stroke-miterlimit="10"/><path d="M149.571 30.4l-2.552 6.504h-.071L144.3 30.4h-2.385l3.971 9.096-2.266 5.052h2.326l6.106-14.148h-2.481zM129.524 40h2.23V25h-2.23v15z" stroke="#fff" stroke-width=".2" stroke-miterlimit="10"/><path clip-rule="evenodd" d="M51.337 21.124h.883V19.6h5.462v1.512h.883v-2.4h-.8V12.4h-4.77v3.564a3.451 3.451 0 01-.906 2.76h-.752v2.4zm1.86-2.364c.5-.83.736-1.792.68-2.76v-2.712h2.899v5.472h-3.578zm9.875.993c.984 0 1.927-.392 2.624-1.09a3.889 3.889 0 000-5.34 3.694 3.694 0 00-2.623-1.098 3.676 3.676 0 00-2.624 1.099 3.901 3.901 0 000 5.34 3.71 3.71 0 002.623 1.089zm0-.881c-.728 0-1.427-.29-1.943-.808a3.083 3.083 0 010-4.128 2.746 2.746 0 013.887 0 3.083 3.083 0 010 4.128 2.747 2.747 0 01-1.944.808z" stroke="#fff" stroke-width=".2" stroke-miterlimit="10"/><path d="M69.947 19.49c.456.185.946.276 1.438.266a3.736 3.736 0 001.622-.336c.46-.22.868-.54 1.192-.936l-.644-.648a2.83 2.83 0 01-2.182 1.068 2.694 2.694 0 01-1.98-.792 3.095 3.095 0 010-4.164 2.705 2.705 0 011.98-.792 2.371 2.371 0 011.992.912l.644-.624a3.305 3.305 0 00-2.624-1.2 3.627 3.627 0 00-2.657 1.079A3.674 3.674 0 0067.664 16a3.693 3.693 0 001.064 2.677c.347.35.762.627 1.219.813zm7.079.11h.918v-6.312h1.992V12.4h-4.914v.888h2.004V19.6zm6.524-1.128l2.707-6.072H85.17l-1.717 4.14-1.765-4.128h-1.085l2.385 5.316-.263.576a1.128 1.128 0 01-.322.456.843.843 0 01-.5.12.962.962 0 01-.477-.132l-.239.852c.226.1.47.153.716.156a1.794 1.794 0 001.026-.379c.294-.23.511-.546.62-.905zm8.92-6.072h-5.176v7.2h.918v-6.312h3.34V19.6h.918v-7.2zm2.552 0h-.918v7.2h.918v-3.252H98.6V19.6h.918v-7.2H98.6v3.084h-3.578V12.4z" stroke="#fff" stroke-width=".2" stroke-miterlimit="10"/><path clip-rule="evenodd" d="M104.396 19.753a3.71 3.71 0 002.624-1.09 3.89 3.89 0 001.059-2.67 3.89 3.89 0 00-1.059-2.67 3.703 3.703 0 00-2.624-1.098 3.674 3.674 0 00-2.624 1.099 3.904 3.904 0 000 5.34 3.71 3.71 0 002.624 1.089zm0-.881c-.729 0-1.428-.29-1.944-.808a3.08 3.08 0 010-4.128 2.745 2.745 0 013.888 0 3.085 3.085 0 010 4.128 2.745 2.745 0 01-1.944.808zm10.018-6.472h-2.588v7.2l2.743-.048a2.197 2.197 0 001.526-.588 1.885 1.885 0 00.644-1.464 1.632 1.632 0 00-.346-1.032 1.81 1.81 0 00-.87-.624c.284-.126.528-.33.703-.588a1.58 1.58 0 00.263-.9 1.827 1.827 0 00-.62-1.404 2.092 2.092 0 00-1.455-.552zm0 3.084h-1.67l.048-2.232h1.705a1.017 1.017 0 01.799.348 1.067 1.067 0 01.203 1.193c-.06.13-.145.246-.251.343a1.068 1.068 0 01-.834.348zm.179 3.228h-1.849l.036-2.388h1.813c.316 0 .619.126.843.351.223.225.349.53.349.849a1.204 1.204 0 01-.334.816 1.092 1.092 0 01-.858.372z" stroke="#fff" stroke-width=".2" stroke-miterlimit="10"/><path d="M14.45 13.048a2.41 2.41 0 00-.548 1.68v26.544c-.036.61.16 1.21.549 1.68l.083.084L29.311 28.18v-.348L14.534 12.964l-.083.084z" fill="url(#paint0_linear)"/><path d="M34.2 33.136l-4.89-4.956v-.348l4.89-4.968.107.06 5.856 3.348c1.67.948 1.67 2.508 0 3.468l-5.832 3.336-.13.06z" fill="url(#paint1_linear)"/><path d="M34.343 33.064L29.31 28 14.45 42.952a1.937 1.937 0 002.481.072l17.424-9.96" fill="url(#paint2_linear)"/><path d="M34.343 22.936l-17.424-9.96a1.936 1.936 0 00-2.48.072L29.31 28l5.033-5.064z" fill="url(#paint3_linear)"/><path opacity=".2" d="M34.2 32.956l-17.28 9.9a1.984 1.984 0 01-2.386 0l-.083.084.083.084a1.972 1.972 0 002.385 0l17.424-9.96-.143-.108z" fill="#000"/><path opacity=".12" d="M14.45 42.784a2.41 2.41 0 01-.548-1.68v.18c-.036.61.16 1.21.549 1.68l.083-.084-.083-.096zM40.164 29.56L34.2 32.956l.107.108 5.856-3.336A2.108 2.108 0 0041.356 28a2.238 2.238 0 01-1.193 1.56z" fill="#000"/><path opacity=".25" d="M16.92 13.144L40.162 26.44A2.222 2.222 0 0141.356 28a2.107 2.107 0 00-1.193-1.728L16.919 12.976c-1.67-.948-3.029-.156-3.029 1.764v.18c.036-1.932 1.372-2.724 3.03-1.776z" fill="#fff"/><rect x="1" y="1" width="163" height="54" rx="7" stroke="#fff" stroke-opacity=".3" stroke-width="2"/><defs><linearGradient id="paint0_linear" x1="27.999" y1="14.452" x2="7.863" y2="34.463" gradientUnits="userSpaceOnUse"><stop stop-color="#00A0FF"/><stop offset=".01" stop-color="#00A1FF"/><stop offset=".26" stop-color="#00BEFF"/><stop offset=".51" stop-color="#00D2FF"/><stop offset=".76" stop-color="#00DFFF"/><stop offset="1" stop-color="#00E3FF"/></linearGradient><linearGradient id="paint1_linear" x1="42.346" y1="28" x2="13.497" y2="28" gradientUnits="userSpaceOnUse"><stop stop-color="#FFE000"/><stop offset=".41" stop-color="#FFBD00"/><stop offset=".78" stop-color="orange"/><stop offset="1" stop-color="#FF9C00"/></linearGradient><linearGradient id="paint2_linear" x1="31.612" y1="30.76" x2="4.301" y2="57.891" gradientUnits="userSpaceOnUse"><stop stop-color="#FF3A44"/><stop offset="1" stop-color="#C31162"/></linearGradient><linearGradient id="paint3_linear" x1="10.706" y1="4.216" x2="22.897" y2="16.332" gradientUnits="userSpaceOnUse"><stop stop-color="#32A071"/><stop offset=".07" stop-color="#2DA771"/><stop offset=".48" stop-color="#15CF74"/><stop offset=".8" stop-color="#06E775"/><stop offset="1" stop-color="#00F076"/></linearGradient></defs></svg>