<svg width="56" height="56" viewBox="0 0 56 56" fill="none" xmlns="http://www.w3.org/2000/svg"><rect width="56" height="56" rx="28" fill="url(#paint0_linear)"/><rect width="56" height="56" rx="28" fill="#FFD43C"/><path d="M18.572 32.84l-1.286 4.287-1.893.507 1.822-5.75-4.088-3.788 1.947-.522 2.868 2.753 1.162-3.833 1.866-.5-1.66 5.271 4.467 4.123-1.975.529-3.23-3.077zm10.438-6.884l-.255 1.43-1.66 7.113-2.163.58-2.537-9.467 1.623-.434 2.026 7.559.263-1.506 1.66-7.112 2.136-.572 2.537 9.466-1.623.435-2.008-7.492zm2.242-2.717l7.438-1.993.384 1.434-2.907.779 2.152 8.032-1.623.435-2.152-8.032-2.908.779-.384-1.434zm12.24 6.997c-.316.084-.606.05-.868-.101a1.141 1.141 0 01-.505-.691 1.092 1.092 0 01.095-.837c.15-.272.382-.45.697-.535.316-.084.602-.045.858.118.263.152.434.377.514.674.08.298.045.582-.104.854-.143.26-.372.433-.688.518zm-3.381-9.37l1.623-.435 1.811 6.761-1.623.435-1.811-6.762z" fill="#000"/><defs><linearGradient id="paint0_linear" x1="0" y1="0" x2="125.182" y2="44.612" gradientUnits="userSpaceOnUse"><stop stop-color="#F529F8"/><stop offset=".568" stop-color="#2660D2"/><stop offset="1" stop-color="#00DBDE"/></linearGradient></defs></svg>