<svg xmlns="http://www.w3.org/2000/svg" width="325.087" height="71.97" viewBox="0 0 325.087 71.97"><defs><linearGradient id="b" x1="1" y1=".5" x2=".358" y2=".5" gradientUnits="objectBoundingBox"><stop offset="0" stop-color="#7bbaff"/><stop offset="1" stop-color="#ceeede"/></linearGradient><clipPath id="a"><path fill="none" d="M0 0h180.043v9.734H0z"/></clipPath><style>.b{fill:#231f20}</style></defs><path class="b" d="M147.728 8.517V25.23h-2.684V6.048h4.509l4.9 16 4.9-16h4.509V25.23h-2.678V8.517l-5.3 16.712h-2.86zm20.041 7.121a9.018 9.018 0 1117.893 0 9.018 9.018 0 11-17.893 0m15.209 0c0-4.939-2.756-7.658-6.227-7.658s-6.227 2.756-6.227 7.658 2.72 7.658 6.227 7.658 6.227-2.72 6.227-7.658m13.849-2.003c4.259 0 6.835 1.754 6.835 5.654s-2.863 5.941-6.835 5.941h-7.157V6.048h12.883v2.326h-10.235v5.261zm4.08 5.69c0-2.577-1.575-3.579-4.294-3.579h-4.295v7.157h4.509c2.648 0 4.187-1.253 4.187-3.579m8.943 5.906h-2.68V6.048h2.68v15.21l10.311-15.21h2.684V25.23h-2.684V9.985zm29.815-16.856h-6.8v3.364c-.322 8.3-1.646 13.492-5.583 13.492h-.787v-2.326h.394c2.541 0 3.185-5.44 3.4-11.989V6.048h11.881V25.23h-2.505zm10.266-2.326v7.157h2.827c4.8-.072 8.374 1.109 8.374 5.976s-3.579 6.048-8.2 6.048h-5.681V6.048zm8.2 13.134c0-3.185-2.326-3.579-5.261-3.579h-2.939v7.3h2.935c2.935 0 5.261-.608 5.261-3.579m21.475 5.906h-2.684v-8.7h-10.092v8.7h-2.684V6.048h2.684v8.159h10.092V6.048h2.684zm3.899-9.592a9.018 9.018 0 1117.893 0 9.018 9.018 0 11-17.893 0m15.209 0c0-4.939-2.72-7.658-6.227-7.658s-6.3 2.756-6.3 7.658 2.756 7.658 6.227 7.658 6.227-2.72 6.227-7.658m19.758-9.59v2.326H308.16v5.833h9.734v2.326h-9.734v6.37h10.342v2.326h-13.026V6.048zM83.956 1.181a36.109 36.109 0 0125.838 10.266 35.465 35.465 0 017.766 11.273 34.1 34.1 0 012.791 13.849 33.962 33.962 0 01-2.791 13.849 35.143 35.143 0 01-19.326 18.758 35.787 35.787 0 01-14.314 2.791H56.865V1.181zm9.09 55.72a19.718 19.718 0 006.871-4.688 22.188 22.188 0 004.4-7.157 22.76 22.76 0 001.575-8.589 23.118 23.118 0 00-1.575-8.66 21.83 21.83 0 00-4.4-6.978 21.007 21.007 0 00-6.871-4.688 24.049 24.049 0 00-9.09-1.825H71.323V58.69h12.633a21.472 21.472 0 009.09-1.789M21.472 0a21.472 21.472 0 1021.472 21.472A21.472 21.472 0 0021.472 0m0 30.49a8.875 8.875 0 116.42-2.6 8.875 8.875 0 01-6.42 2.6"/><g transform="translate(145.044 62.197)" clip-path="url(#a)"><path fill="url(#b)" d="M0 0h180.043v9.734H0z"/></g><path class="b" d="M147.728 52.785h1.789a2.362 2.362 0 002.29-1.288l.358-.68-7.157-15.245h2.9l5.58 12.454 5.155-12.454h2.97l-7.157 16.032a5.332 5.332 0 01-4.9 3.579h-1.968zm28.195-14.887h-9.586v16.82h-2.684V35.572h14.959v19.146h-2.689zm21.727 3.471c0 4.76-3.257 5.8-7.945 5.8h-3.292v7.587h-2.72V35.572h5.976c4.688 0 7.945 1.038 7.945 5.8m-11.237 3.576h3.579c2.791 0 5.01-.286 5.01-3.579s-2.219-3.579-5.01-3.579h-3.579zm20.189-9.376l7.157 19.182h-2.9l-1.5-4.151h-8.738l-1.5 4.151h-2.759l7.157-19.182zm1.968 12.7l-3.583-9.98-3.579 9.985zm14.85-12.7c3.579 0 6.728.93 6.728 4.724a4.76 4.76 0 01-2.111 4.223 4.545 4.545 0 012.9 4.545c0 4.08-3.042 5.69-6.871 5.69h-7.556V35.572zm.394 8.2c2.219 0 3.579-.859 3.579-3.113s-1.473-2.832-3.583-2.832h-4.616v5.941zm.286 8.7c2.72 0 4.08-1.181 4.08-3.364s-1.36-3.194-4.26-3.194h-4.726v6.549zm22.006-14.574h-6.764v3.328c-.286 8.3-1.61 13.527-5.547 13.527h-.823v-2.321h.394c2.541 0 3.221-5.475 3.579-12.024v-4.836h12.024v19.182h-2.72zm20.792-2.326v2.326h-10.307v5.8h9.7v2.362h-9.7v6.332h10.307v2.326h-12.991V35.572zm19.325 19.146h-2.684v-8.7h-10.056v8.7h-2.72V35.572h2.72v8.124h10.056v-8.124h2.684zm7.801 0h-2.72V35.572h2.72v15.209l10.306-15.209h2.684v19.146h-2.684V39.509zm31.098-19.146v2.326h-10.342v5.8h9.734v2.362h-9.734v6.332h10.342v2.326H312.06V35.572z"/></svg>