<svg xmlns="http://www.w3.org/2000/svg" xmlns:xlink="http://www.w3.org/1999/xlink" width="325.087" height="71.97" viewBox="0 0 325.087 71.97"><defs><style>.a{fill:none;}.b{fill:#231f20;}.c{clip-path:url(#a);}.d{fill:url(#b);}</style><clipPath id="a"><rect class="a" width="180.043" height="9.734"/></clipPath><linearGradient id="b" x1="1" y1="0.5" x2="0.358" y2="0.5" gradientUnits="objectBoundingBox"><stop offset="0" stop-color="#7bbaff"/><stop offset="1" stop-color="#ceeede"/></linearGradient></defs><path class="b" d="M43.214,4.159V20.872H40.53V1.69h4.509l4.9,16,4.9-16h4.509V20.872H56.67V4.159l-5.3,16.712H48.51Z" transform="translate(104.514 4.358)"/><path class="b" d="M46.932,11.685a9.018,9.018,0,1,1,17.893,0,9.018,9.018,0,1,1-17.893,0m15.209,0c0-4.939-2.756-7.658-6.227-7.658s-6.227,2.756-6.227,7.658,2.72,7.658,6.227,7.658,6.227-2.72,6.227-7.658" transform="translate(120.837 3.953)"/><path class="b" d="M60.157,9.277c4.259,0,6.835,1.754,6.835,5.654s-2.863,5.941-6.835,5.941H53V1.69H65.883V4.016H55.648V9.277Zm4.08,5.69c0-2.577-1.575-3.579-4.294-3.579H55.648v7.157h4.509c2.648,0,4.187-1.253,4.187-3.579" transform="translate(136.67 4.358)"/><path class="b" d="M60.6,20.872H57.92V1.69H60.6V16.9L70.911,1.69h2.684V20.872H70.911V5.627Z" transform="translate(149.357 4.358)"/><path class="b" d="M76.49,4.016h-6.8V7.38c-.322,8.3-1.646,13.492-5.583,13.492H63.32V18.546h.394c2.541,0,3.185-5.44,3.4-11.989V1.69H78.995V20.872H76.49Z" transform="translate(163.282 4.358)"/><path class="b" d="M71.8,1.69V8.847h2.827c4.8-.072,8.374,1.109,8.374,5.976s-3.579,6.048-8.2,6.048H69.12V1.69ZM80,14.824c0-3.185-2.326-3.579-5.261-3.579H71.8v7.3h2.935c2.935,0,5.261-.608,5.261-3.579" transform="translate(178.238 4.358)"/><path class="b" d="M89.3,20.872H86.616v-8.7H76.524v8.7H73.84V1.69h2.684V9.849H86.616V1.69H89.3Z" transform="translate(190.409 4.358)"/><path class="b" d="M79.3,11.685a9.018,9.018,0,1,1,17.893,0,9.018,9.018,0,1,1-17.893,0m15.209,0c0-4.939-2.72-7.658-6.227-7.658s-6.3,2.756-6.3,7.658,2.756,7.658,6.227,7.658,6.227-2.72,6.227-7.658" transform="translate(204.308 3.953)"/><path class="b" d="M98.386,1.69V4.016H88.044V9.849h9.734v2.326H88.044v6.37H98.386v2.326H85.36V1.69Z" transform="translate(220.116 4.358)"/><path class="b" d="M42.981.334A36.109,36.109,0,0,1,68.819,10.6a35.465,35.465,0,0,1,7.766,11.273,34.1,34.1,0,0,1,2.791,13.849,33.962,33.962,0,0,1-2.791,13.849A35.143,35.143,0,0,1,57.259,68.329,35.787,35.787,0,0,1,42.945,71.12H15.89V.334Zm9.09,55.72a19.718,19.718,0,0,0,6.871-4.688,22.188,22.188,0,0,0,4.4-7.157,22.76,22.76,0,0,0,1.575-8.589,23.118,23.118,0,0,0-1.575-8.66,21.83,21.83,0,0,0-4.4-6.978,21.007,21.007,0,0,0-6.871-4.688,24.049,24.049,0,0,0-9.09-1.825H30.348V57.843H42.981a21.472,21.472,0,0,0,9.09-1.789" transform="translate(40.975 0.847)"/><path class="b" d="M21.472,0A21.472,21.472,0,1,0,42.944,21.472,21.472,21.472,0,0,0,21.472,0m0,30.49a8.875,8.875,0,1,1,6.42-2.6,8.875,8.875,0,0,1-6.42,2.6"/><g class="c" transform="translate(145.044 62.197)"><rect class="d" width="180.043" height="9.734"/></g><path class="b" d="M43.24,27.153h1.789a2.362,2.362,0,0,0,2.29-1.288l.358-.68L40.52,9.94h2.9L49,22.394,54.155,9.94h2.97L49.968,25.972a5.332,5.332,0,0,1-4.9,3.579H43.1Z" transform="translate(104.488 25.632)"/><path class="b" d="M58,12.266H48.414v16.82H45.73V9.94H60.689V29.086H58Z" transform="translate(117.923 25.632)"/><path class="b" d="M65.287,15.737c0,4.76-3.257,5.8-7.945,5.8H54.05v7.587H51.33V9.94h5.976c4.688,0,7.945,1.038,7.945,5.8M54.014,19.316h3.579c2.791,0,5.01-.286,5.01-3.579s-2.219-3.579-5.01-3.579H54.014Z" transform="translate(132.363 25.632)"/><path class="b" d="M65.1,9.94l7.157,19.182h-2.9l-1.5-4.151H59.119l-1.5,4.151H54.86L62.017,9.94Zm1.968,12.7L63.485,12.66l-3.579,9.985Z" transform="translate(141.466 25.632)"/><path class="b" d="M67.4,9.94c3.579,0,6.728.93,6.728,4.724a4.76,4.76,0,0,1-2.111,4.223,4.545,4.545,0,0,1,2.9,4.545c0,4.08-3.042,5.69-6.871,5.69H60.49V9.94Zm.394,8.2c2.219,0,3.579-.859,3.579-3.113S69.9,12.195,67.79,12.195H63.174v5.941Zm.286,8.7c2.72,0,4.08-1.181,4.08-3.364S70.8,20.282,67.9,20.282H63.174v6.549Z" transform="translate(155.984 25.632)"/><path class="b" d="M78.224,12.266H71.46v3.328c-.286,8.3-1.61,13.527-5.547,13.527H65.09V26.8h.394c2.541,0,3.221-5.475,3.579-12.024V9.94H81.087V29.122h-2.72Z" transform="translate(167.846 25.632)"/><path class="b" d="M83.931,9.94v2.326H73.624v5.8h9.7v2.362h-9.7V26.76H83.931v2.326H70.94V9.94Z" transform="translate(182.931 25.632)"/><path class="b" d="M91.11,29.086H88.426v-8.7H78.37v8.7H75.65V9.94h2.72v8.124H88.426V9.94H91.11Z" transform="translate(195.077 25.632)"/><path class="b" d="M84.11,29.086H81.39V9.94h2.72V25.149L94.416,9.94H97.1V29.086H94.416V13.877Z" transform="translate(209.878 25.632)"/><path class="b" d="M100.226,9.94v2.326H89.884v5.8h9.734v2.362H89.884V26.76h10.342v2.326H87.2V9.94Z" transform="translate(224.86 25.632)"/></svg>