<svg width="56" height="56" viewBox="0 0 56 56" fill="none" xmlns="http://www.w3.org/2000/svg"><rect width="56" height="56" rx="28" fill="#58FA8F"/><path d="M21.56 31.887l-1.96.526.956 3.57-1.622.434-2.537-9.466 3.26-.873c1.261-.338 2.251-.323 2.968.045.726.366 1.212 1.009 1.459 1.928.169.632.17 1.216.006 1.753-.168.528-.52.984-1.054 1.369l3.065 3.324-1.84.493-2.7-3.103zm-3.156-3.937l.812 3.03 1.636-.44c.676-.18 1.131-.447 1.365-.8.232-.361.286-.772.163-1.232-.126-.469-.378-.797-.757-.986-.379-.188-.907-.192-1.583-.01l-1.636.438zm11.855 5.563c-1.063.285-1.964.222-2.703-.189-.74-.42-1.26-1.155-1.561-2.205l1.704-.456c.184.617.455 1.032.812 1.246.354.205.802.235 1.343.09.559-.15.944-.389 1.156-.716.21-.336.256-.72.14-1.154a1.3 1.3 0 00-.663-.851c-.329-.182-.755-.204-1.278-.063l-1.244.333-.384-1.433 1.244-.334c.433-.116.74-.32.924-.61.183-.29.226-.616.13-.976-.102-.38-.31-.652-.626-.819-.306-.169-.703-.188-1.19-.058-.9.242-1.257.878-1.067 1.91l-1.704.456c-.236-.951-.15-1.766.257-2.446.414-.69 1.117-1.169 2.109-1.434.523-.14 1-.196 1.434-.167.43.02.807.112 1.132.276.333.162.612.392.837.69.222.288.386.63.492 1.027.116.433.127.85.031 1.252-.095.403-.311.765-.65 1.088.52.102.945.317 1.274.644.327.318.553.712.679 1.18.11.415.141.818.091 1.208a2.51 2.51 0 01-.41 1.066 3.054 3.054 0 01-.902.851c-.379.246-.848.444-1.407.594zm4.047-2.751l2.27-3.753c.22-.369.405-.689.555-.96a4.31 4.31 0 00.327-.726c.078-.214.123-.405.136-.573a1.462 1.462 0 00-.045-.495c-.111-.415-.331-.713-.66-.895-.33-.183-.724-.212-1.184-.09-.46.124-.785.351-.977.683-.19.331-.221.74-.09 1.227l-1.705.457a3.518 3.518 0 01-.117-1.302c.043-.418.165-.793.365-1.127a3.07 3.07 0 01.838-.877c.358-.25.785-.442 1.28-.575a3.926 3.926 0 011.384-.139c.432.03.82.138 1.16.327.347.178.64.428.882.75.238.313.414.68.528 1.105.142.531.111 1.1-.094 1.706-.205.606-.58 1.334-1.124 2.186l-1.605 2.502 4.232-1.134.384 1.433-6.355 1.703-.385-1.433z" fill="#000"/></svg>