<svg xmlns="http://www.w3.org/2000/svg" xmlns:xlink="http://www.w3.org/1999/xlink"><defs>
<linearGradient id="paint0_linear" x1="27.9987" y1="14.4519" x2="7.86306" y2="34.4632" gradientUnits="userSpaceOnUse">
<stop stop-color="#00A0FF"/>
<stop offset="0.01" stop-color="#00A1FF"/>
<stop offset="0.26" stop-color="#00BEFF"/>
<stop offset="0.51" stop-color="#00D2FF"/>
<stop offset="0.76" stop-color="#00DFFF"/>
<stop offset="1" stop-color="#00E3FF"/>
</linearGradient>
<linearGradient id="paint1_linear" x1="42.3456" y1="28.0003" x2="13.4968" y2="28.0003" gradientUnits="userSpaceOnUse">
<stop stop-color="#FFE000"/>
<stop offset="0.41" stop-color="#FFBD00"/>
<stop offset="0.78" stop-color="#FFA500"/>
<stop offset="1" stop-color="#FF9C00"/>
</linearGradient>
<linearGradient id="paint2_linear" x1="31.6121" y1="30.76" x2="4.30069" y2="57.8909" gradientUnits="userSpaceOnUse">
<stop stop-color="#FF3A44"/>
<stop offset="1" stop-color="#C31162"/>
</linearGradient>
<linearGradient id="paint3_linear" x1="10.7057" y1="4.21596" x2="22.8974" y2="16.3325" gradientUnits="userSpaceOnUse">
<stop stop-color="#32A071"/>
<stop offset="0.07" stop-color="#2DA771"/>
<stop offset="0.48" stop-color="#15CF74"/>
<stop offset="0.8" stop-color="#06E775"/>
<stop offset="1" stop-color="#00F076"/>
</linearGradient>
</defs><symbol id="appstore" viewBox="0 0 156 56">
<path d="M32.5817 25.5058C32.0859 26.3769 31.8191 27.359 31.8061 28.3606C31.8074 29.4872 32.1411 30.5886 32.7658 31.5273C33.3905 32.4661 34.2785 33.2007 35.3191 33.6396C34.9099 34.9649 34.2933 36.2174 33.4918 37.3506C32.4156 38.9561 31.2871 40.5246 29.496 40.5536C28.6442 40.5732 28.0692 40.3289 27.4701 40.0744C26.8451 39.8089 26.1938 39.5322 25.1747 39.5322C24.0939 39.5322 23.4135 39.8178 22.7573 40.0932C22.1902 40.3312 21.6412 40.5616 20.8674 40.5936C19.1617 40.6566 17.8581 38.8801 16.7427 37.2897C14.5133 34.0417 12.7774 28.1365 15.1047 24.1184C15.6419 23.1556 16.4201 22.3481 17.3634 21.7744C18.3067 21.2007 19.3829 20.8805 20.4872 20.8449C21.4547 20.8251 22.383 21.1969 23.1968 21.5229C23.8192 21.7722 24.3747 21.9947 24.8296 21.9947C25.2295 21.9947 25.7695 21.781 26.3988 21.5319C27.3901 21.1396 28.603 20.6595 29.8391 20.7889C30.7864 20.8184 31.7137 21.0679 32.5475 21.5173C33.3812 21.9668 34.0983 22.6039 34.642 23.3781C33.7862 23.9027 33.0775 24.6346 32.5817 25.5058Z" fill="white"/>
<path d="M29.8602 14.4641C29.9767 15.9812 29.4955 17.4838 28.519 18.6528C28.0514 19.2328 27.4578 19.6994 26.7832 20.0176C26.1085 20.3357 25.3702 20.497 24.624 20.4893C24.5763 19.7597 24.6734 19.028 24.9095 18.3359C25.1457 17.6437 25.5163 17.0048 26.0003 16.4556C26.99 15.3314 28.3682 14.6204 29.8602 14.4641Z" fill="white"/>
<path fill-rule="evenodd" clip-rule="evenodd" d="M55.9053 36.5674H50.2093L48.8414 40.5951H46.4288L51.824 25.6935H54.3306L59.7258 40.5951H57.272L55.9053 36.5674ZM50.7992 34.7088H55.3143L53.0885 28.172H53.0262L50.7992 34.7088Z" fill="white"/>
<path fill-rule="evenodd" clip-rule="evenodd" d="M71.3776 35.1634C71.3776 38.5396 69.5655 40.7088 66.8308 40.7088C66.1381 40.7449 65.4492 40.5858 64.8429 40.2496C64.2367 39.9134 63.7376 39.4138 63.4029 38.808H63.3511V44.1892H61.1148V29.7306H63.2795V31.5377H63.3206C63.6707 30.9347 64.1782 30.4377 64.7891 30.0995C65.4 29.7612 66.0914 29.5945 66.7897 29.617C69.5548 29.617 71.3776 31.7966 71.3776 35.1634ZM69.0789 35.1634C69.0789 32.9638 67.939 31.5177 66.1998 31.5177C64.4911 31.5177 63.3418 32.9943 63.3418 35.1634C63.3418 37.3525 64.4911 38.8185 66.1998 38.8185C67.939 38.8185 69.0789 37.383 69.0789 35.1634Z" fill="white"/>
<path fill-rule="evenodd" clip-rule="evenodd" d="M83.3689 35.1634C83.3689 38.5396 81.5568 40.7088 78.8222 40.7088C78.1295 40.7449 77.4406 40.5858 76.8343 40.2496C76.2281 39.9134 75.729 39.4138 75.3943 38.808H75.3425V44.1892H73.1062V29.7306H75.2708V31.5377H75.312C75.6621 30.9347 76.1696 30.4377 76.7805 30.0995C77.3913 29.7612 78.0827 29.5945 78.7811 29.617C81.5463 29.617 83.3689 31.7966 83.3689 35.1634ZM81.0703 35.1634C81.0703 32.9638 79.9304 31.5177 78.1912 31.5177C76.4825 31.5177 75.3331 32.9943 75.3331 35.1634C75.3331 37.3525 76.4825 38.8185 78.1912 38.8185C79.9304 38.8185 81.0703 37.383 81.0703 35.1634Z" fill="white"/>
<path d="M91.2943 36.4431C91.46 37.9209 92.8995 38.8911 94.8668 38.8911C96.7517 38.8911 98.1079 37.9208 98.1079 36.5884C98.1079 35.4317 97.2899 34.7392 95.3533 34.2646L93.4166 33.7993C90.6726 33.1384 89.3987 31.8587 89.3987 29.7821C89.3987 27.211 91.6456 25.445 94.8362 25.445C97.9938 25.445 100.159 27.211 100.231 29.7821H97.9739C97.8387 28.295 96.606 27.3974 94.8044 27.3974C93.0029 27.3974 91.7702 28.3056 91.7702 29.6275C91.7702 30.681 92.5575 31.3009 94.4836 31.7755L96.13 32.1786C99.196 32.9016 100.47 34.1298 100.47 36.3094C100.47 39.0973 98.243 40.8434 94.701 40.8434C91.387 40.8434 89.1495 39.1383 89.005 36.443L91.2943 36.4431Z" fill="white"/>
<path d="M105.296 27.1595V29.7306H107.368V31.4966H105.296V37.4861C105.296 38.4166 105.711 38.8502 106.622 38.8502C106.868 38.8459 107.113 38.8287 107.358 38.7986V40.554C106.948 40.6303 106.532 40.6649 106.115 40.6572C103.91 40.6572 103.049 39.831 103.049 37.7239V31.4966H101.465V29.7306H103.049V27.1595H105.296Z" fill="white"/>
<path fill-rule="evenodd" clip-rule="evenodd" d="M108.568 35.1634C108.568 31.7451 110.587 29.597 113.735 29.597C116.894 29.597 118.904 31.745 118.904 35.1634C118.904 38.5912 116.905 40.7299 113.735 40.7299C110.567 40.7299 108.568 38.5912 108.568 35.1634ZM116.625 35.1634C116.625 32.8185 115.547 31.4345 113.735 31.4345C111.923 31.4345 110.847 32.8291 110.847 35.1634C110.847 37.5177 111.923 38.8912 113.735 38.8912C115.547 38.8912 116.625 37.5177 116.625 35.1634Z" fill="white"/>
<path d="M120.747 29.7306H122.88V31.5798H122.932C123.076 31.0023 123.416 30.4919 123.893 30.1344C124.37 29.777 124.956 29.5942 125.553 29.6169C125.81 29.616 126.067 29.644 126.319 29.7001V31.7861C125.994 31.6869 125.654 31.6414 125.314 31.6513C124.989 31.6382 124.665 31.6953 124.365 31.8188C124.064 31.9422 123.794 32.1291 123.572 32.3666C123.351 32.604 123.184 32.8865 123.082 33.1945C122.981 33.5025 122.947 33.8288 122.984 34.1509V40.5951H120.747L120.747 29.7306Z" fill="white"/>
<path fill-rule="evenodd" clip-rule="evenodd" d="M136.63 37.4041C136.329 39.3763 134.403 40.7298 131.938 40.7298C128.769 40.7298 126.802 38.6123 126.802 35.215C126.802 31.8072 128.78 29.597 131.844 29.597C134.859 29.597 136.754 31.6619 136.754 34.956V35.7201H129.059V35.8548C129.024 36.2547 129.074 36.6575 129.207 37.0365C129.339 37.4155 129.551 37.762 129.828 38.0531C130.106 38.3442 130.442 38.5731 130.814 38.7246C131.187 38.8762 131.588 38.9469 131.99 38.9322C132.519 38.9816 133.049 38.8595 133.502 38.5842C133.956 38.3088 134.308 37.895 134.506 37.4041L136.63 37.4041ZM129.07 34.1615H134.517C134.537 33.802 134.482 33.4422 134.356 33.1047C134.23 32.7673 134.036 32.4594 133.785 32.2005C133.534 31.9416 133.232 31.7372 132.898 31.6001C132.564 31.4631 132.205 31.3963 131.844 31.4041C131.48 31.4019 131.119 31.4717 130.782 31.6094C130.445 31.7471 130.139 31.9499 129.881 32.2063C129.623 32.4627 129.419 32.7674 129.279 33.103C129.14 33.4386 129.069 33.7983 129.07 34.1615Z" fill="white"/>
<path d="M50.1699 15.5039H49.2098V16.476H50.2005C51.2005 16.476 51.7728 16.9131 51.7728 17.6227C51.7728 18.3223 51.1653 18.8186 50.2346 18.8186C49.3038 18.8186 48.6728 18.3767 48.6081 17.6918H47.5376C47.5698 18.0097 47.6659 18.3178 47.8201 18.5979C47.9743 18.8779 48.1835 19.1242 48.4352 19.3219C48.6869 19.5196 48.9759 19.6648 49.285 19.7487C49.5942 19.8327 49.9171 19.8537 50.2346 19.8105C50.5513 19.8498 50.8728 19.8256 51.1801 19.7393C51.4874 19.6531 51.7744 19.5065 52.0241 19.3083C52.2739 19.11 52.4815 18.864 52.6347 18.5847C52.7878 18.3054 52.8836 17.9985 52.9163 17.6818C52.9336 17.2413 52.7753 16.8119 52.476 16.4874C52.1768 16.163 51.7609 15.9699 51.3192 15.9504V15.866C51.6918 15.7831 52.0245 15.5752 52.2619 15.2772C52.4993 14.9791 52.627 14.6089 52.6237 14.2283C52.6237 13.0921 51.6283 12.3029 50.2145 12.3029C49.9082 12.2632 49.5969 12.2868 49.3 12.3723C49.0032 12.4577 48.7272 12.6032 48.4892 12.7997C48.2512 12.9961 48.0563 13.2393 47.9166 13.5141C47.7769 13.7889 47.6955 14.0895 47.6774 14.397H48.7315C48.7506 14.2276 48.8035 14.0637 48.8872 13.915C48.9709 13.7663 49.0836 13.6359 49.2186 13.5313C49.3537 13.4268 49.5084 13.3503 49.6736 13.3064C49.8388 13.2624 50.0112 13.252 50.1805 13.2756C51.0254 13.2756 51.5237 13.7021 51.5237 14.3625C51.5165 14.5284 51.4749 14.6911 51.4016 14.8402C51.3282 14.9893 51.2247 15.1216 51.0975 15.2289C50.9703 15.3361 50.8222 15.4159 50.6626 15.4632C50.5029 15.5106 50.3352 15.5244 50.1699 15.5039Z" fill="white"/>
<path fill-rule="evenodd" clip-rule="evenodd" d="M56.148 16.4959C54.86 16.5756 54.1326 17.1363 54.1326 18.109C54.1335 18.337 54.1823 18.5624 54.2759 18.7705C54.3694 18.9786 54.5057 19.1648 54.6759 19.3172C54.8461 19.4695 55.0464 19.5846 55.2639 19.6551C55.4814 19.7255 55.7113 19.7497 55.9388 19.7261C56.2611 19.741 56.5816 19.6703 56.8675 19.5212C57.1535 19.3722 57.3947 19.1501 57.5664 18.8777H57.651V19.6371H58.6816V15.9451C58.6816 14.8037 57.9154 14.1293 56.5569 14.1293C55.3277 14.1293 54.451 14.7246 54.3417 15.6527H55.3771C55.4969 15.2707 55.9094 15.0521 56.5064 15.0521C57.2385 15.0521 57.6158 15.3744 57.6158 15.9451V16.4115L56.148 16.4959ZM57.6158 17.1955V17.6472C57.6042 17.8177 57.5583 17.9841 57.4809 18.1365C57.4036 18.2889 57.2962 18.4243 57.1653 18.5345C57.0344 18.6447 56.8826 18.7275 56.7189 18.778C56.5552 18.8285 56.383 18.8457 56.2126 18.8285C55.6308 18.8285 55.2078 18.5455 55.2078 18.0591C55.2078 17.5828 55.5462 17.3296 56.2925 17.2798L57.6158 17.1955Z" fill="white"/>
<path d="M61.5196 19.6371V15.1312L64.0181 15.1312V14.2336H60.4502V19.6371H61.5196Z" fill="white"/>
<path fill-rule="evenodd" clip-rule="evenodd" d="M68.2604 19.7261C69.6283 19.7261 70.4991 18.6498 70.4991 16.933C70.4991 15.2156 69.6283 14.1439 68.2498 14.1439C67.9029 14.1354 67.5604 14.2227 67.2601 14.3961C66.9598 14.5695 66.7135 14.8223 66.5482 15.1266H66.4683V14.2336H65.4388V21.4336H66.5082V18.8185H66.5928C66.7552 19.1125 66.9984 19.3541 67.2938 19.5149C67.5893 19.6757 67.9246 19.749 68.2604 19.7261ZM67.9513 15.1019C68.8574 15.1019 69.3991 15.7916 69.3991 16.933C69.3991 18.0791 68.8574 18.7687 67.9466 18.7687C67.0512 18.7687 66.4883 18.0638 66.4883 16.9377C66.4883 15.8062 67.0512 15.1019 67.9513 15.1019Z" fill="white"/>
<path d="M71.9234 20.6543V21.5724C72.0233 21.5871 72.2771 21.597 72.3664 21.597C73.4711 21.597 73.9835 21.1752 74.4465 19.8603L76.4666 14.2336H75.3325L73.9787 18.5255H73.8941L72.5356 14.2336H71.371L73.3324 19.657L73.2524 19.9201C73.211 20.1441 73.088 20.345 72.9071 20.4842C72.7262 20.6233 72.5002 20.691 72.2724 20.6742C72.1557 20.6756 72.0391 20.6689 71.9234 20.6543Z" fill="white"/>
<path d="M78.3645 18.1037H77.2998C77.3985 19.1953 78.3598 19.7361 79.5432 19.7361C80.8817 19.7361 81.7583 19.0565 81.7583 18.0293C81.7617 17.7323 81.6556 17.4445 81.4602 17.2204C81.2648 16.9963 80.9937 16.8515 80.6983 16.8135V16.7291C80.9464 16.6703 81.1667 16.5284 81.3225 16.327C81.4782 16.1256 81.5599 15.8771 81.5539 15.6229C81.5539 14.71 80.817 14.1293 79.529 14.1293C79.0362 14.0616 78.5363 14.1894 78.137 14.4854C77.7377 14.7813 77.4708 15.2218 77.3938 15.7119H78.4244C78.4937 15.2854 78.9309 15.0322 79.529 15.0322C80.186 15.0322 80.5044 15.3351 80.5044 15.7318C80.5044 16.1836 80.1754 16.4314 79.529 16.4314H78.7323V17.2599H79.5432C80.3 17.2599 80.6925 17.5084 80.6925 18.0293C80.6925 18.5156 80.2553 18.8285 79.5432 18.8285C78.9168 18.8285 78.469 18.5801 78.3645 18.1037Z" fill="white"/>
<path d="M83.2984 14.2336V19.6371L84.3584 19.6371L86.8603 15.9006H86.9402V19.6371H88.0002V14.2336H86.9402L84.443 17.9502H84.3584V14.2336H83.2984Z" fill="white"/>
<path d="M92.1332 15.1312H93.8396V14.2336H89.3563V15.1312H91.0627V19.6371H92.1332V15.1312Z" fill="white"/>
<path fill-rule="evenodd" clip-rule="evenodd" d="M98.7101 19.3847C99.1395 19.099 99.4546 18.6719 99.6003 18.1781L98.5697 18.178C98.4443 18.4023 98.2549 18.5843 98.0256 18.701C97.7962 18.8176 97.5373 18.8636 97.2817 18.8331C97.0821 18.8355 96.8842 18.7963 96.7007 18.7179C96.5172 18.6395 96.3522 18.5236 96.2163 18.3778C96.0804 18.232 95.9766 18.0595 95.9115 17.8713C95.8465 17.6831 95.8216 17.4835 95.8386 17.2851V17.2254H99.6649V16.8532C99.6649 15.1564 98.7542 14.1292 97.2464 14.1292C96.8884 14.1262 96.5339 14.1999 96.2069 14.3454C95.88 14.4908 95.5882 14.7046 95.3512 14.9723C95.1143 15.24 94.9379 15.5553 94.8338 15.8969C94.7297 16.2385 94.7005 16.5984 94.748 16.9523C94.6992 17.3051 94.7279 17.6642 94.8323 18.0048C94.9366 18.3454 95.114 18.6593 95.3521 18.9246C95.5903 19.19 95.8835 19.4005 96.2114 19.5415C96.5394 19.6826 96.8941 19.7508 97.2511 19.7414C97.7643 19.7967 98.2807 19.6705 98.7101 19.3847ZM98.5743 16.4367H95.8385C95.836 16.2522 95.8705 16.0691 95.9401 15.8981C96.0097 15.7271 96.1129 15.5718 96.2437 15.4413C96.3745 15.3108 96.5302 15.2078 96.7016 15.1383C96.873 15.0689 97.0567 15.0344 97.2417 15.0369C97.4239 15.0328 97.605 15.0668 97.7732 15.1367C97.9415 15.2066 98.0933 15.3108 98.2188 15.4426C98.3443 15.5744 98.4407 15.7309 98.5019 15.9021C98.5632 16.0733 98.5878 16.2554 98.5743 16.4367Z" fill="white"/>
<path fill-rule="evenodd" clip-rule="evenodd" d="M106.577 14.2336H104.134V19.637H106.602C107.791 19.637 108.502 19.0218 108.502 18.079C108.506 17.7629 108.388 17.4573 108.172 17.2255C107.957 16.9936 107.66 16.8533 107.343 16.8333V16.749C107.604 16.6921 107.837 16.5477 108.004 16.3399C108.17 16.1321 108.261 15.8736 108.259 15.6076C108.259 14.7691 107.637 14.2336 106.577 14.2336ZM105.194 16.4513V15.0521L106.373 15.0521C106.94 15.0521 107.209 15.3251 107.209 15.7464C107.209 16.2035 106.9 16.4513 106.254 16.4513H105.194ZM105.194 18.8185V17.2353L106.328 17.2353C107.05 17.2353 107.433 17.4885 107.433 18.0293C107.433 18.5402 107.094 18.8185 106.462 18.8185H105.194Z" fill="white"/>
<rect x="1" y="1" width="154" height="54" rx="7" stroke="white" stroke-opacity="0.3" stroke-width="2"/>
</symbol><symbol id="arrow-down" viewBox="0 0 7 4">
<path fill-rule="evenodd" clip-rule="evenodd" d="M0.146447 0.146447C0.341709 -0.0488155 0.658291 -0.0488155 0.853553 0.146447L3.5 2.79289L6.14645 0.146447C6.34171 -0.0488155 6.65829 -0.0488155 6.85355 0.146447C7.04882 0.341709 7.04882 0.658291 6.85355 0.853553L3.85355 3.85355C3.65829 4.04882 3.34171 4.04882 3.14645 3.85355L0.146447 0.853553C-0.0488155 0.658291 -0.0488155 0.341709 0.146447 0.146447Z" fill="black"/>
</symbol><symbol id="arrow-right-blue" viewBox="0 0 14 9">
<path d="M9.64645 7.3033C9.45118 7.49856 9.45118 7.81515 9.64645 8.01041C9.84171 8.20567 10.1583 8.20567 10.3536 8.01041L13.8536 4.51041C14.0488 4.31515 14.0488 3.99856 13.8536 3.8033L10.1967 0.146446C10.0014 -0.0488155 9.68485 -0.0488155 9.48959 0.146446C9.29433 0.341709 9.29433 0.658292 9.48959 0.853553L12.293 3.65693L0.5 3.65693C0.223858 3.65693 2.41412e-08 3.88079 0 4.15693C-2.41411e-08 4.43307 0.223858 4.65693 0.5 4.65693L12.2928 4.65693L9.64645 7.3033Z" fill="#009ee5"/>
</symbol><symbol id="arrow-right-white" viewBox="0 0 14 10">
<path d="M9.64645 8.22493C9.45118 8.42019 9.45118 8.73678 9.64645 8.93204C9.84171 9.1273 10.1583 9.1273 10.3536 8.93204L13.8536 5.43204C14.0488 5.23678 14.0488 4.9202 13.8536 4.72493L10.1967 1.06808C10.0014 0.872815 9.68485 0.872815 9.48959 1.06808C9.29433 1.26334 9.29433 1.57992 9.48959 1.77518L12.293 4.57856L0.5 4.57856C0.223858 4.57856 2.41412e-08 4.80242 0 5.07856C-2.41411e-08 5.3547 0.223858 5.57856 0.5 5.57856L12.2928 5.57856L9.64645 8.22493Z" fill="#FFFFFF"/>
</symbol><symbol id="arrow-right" viewBox="0 0 14 9"><path d="M9.646 7.303a.5.5 0 10.708.707l3.5-3.5a.5.5 0 000-.707L10.197.146a.5.5 0 00-.707.708l2.803 2.803H.5a.5.5 0 000 1h11.793L9.646 7.303z" fill="#111112"/></symbol><symbol id="daikin-logo" viewBox="0 0 170 37">
<path d="M39.0277 0.572693H0.567871V36.4275L39.0277 0.572693Z" fill="#44C8F5"/>
<path d="M19.7942 0.572727H0.566895V18.5084L19.7942 0.572727Z" fill="#231F20"/>
<path d="M92.7328 8.35509L87.7124 28.6379H96.5826L101.599 8.35509H92.7328Z" fill="#00A0E4"/>
<path d="M72.4744 20.1105H70.4401L73.72 14.2592L74.7838 20.1105H72.4744ZM71.2123 8.35296L59.8047 28.6348H65.6713L67.5648 25.2541H75.7091L76.3159 28.6348H84.9746L81.2943 8.35296H71.2123Z" fill="#00A0E4"/>
<path d="M133.241 8.35509L128.234 28.6379H137.102L142.11 8.35509H133.241Z" fill="#00A0E4"/>
<path d="M129.277 8.35509H120.188L112.58 14.9898L114.241 8.35509H105.739L100.732 28.6379H109.207L110.938 21.6359L115.47 28.6379H125.728L118.13 18.0156L129.277 8.35509Z" fill="#00A0E4"/>
<path d="M52.8446 17.5725C52.8446 17.5725 52.2685 24.1605 46.713 24.1605H43.5698L46.3382 13.2206H49.1909C50.2116 13.2268 53.166 13.4945 52.8446 17.5725ZM52.3948 8.36443L50.1007 8.35717H39.0022L33.9951 28.6317H45.0156L49.3757 28.6379C55.5144 28.6379 61.5556 24.0204 61.5556 16.9478C61.5556 8.62591 52.3948 8.36443 52.3948 8.36443Z" fill="#00A0E4"/>
<path d="M163.294 8.35198L160.336 20.2953L156.394 8.35198H146.53L141.519 28.6379H147.653L150.64 16.5898L154.593 28.6379H164.415L169.434 8.35198H163.294Z" fill="#00A0E4"/>
</symbol><symbol id="googleplay" viewBox="0 0 165 56">
<path fill-rule="evenodd" clip-rule="evenodd" d="M83.2631 30.0998C82.2617 30.1045 81.2841 30.4076 80.4537 30.9709C79.6234 31.5342 78.9774 32.3323 78.5975 33.2647C78.2175 34.197 78.1205 35.2216 78.3188 36.2094C78.517 37.1971 79.0016 38.1036 79.7114 38.8144C80.4212 39.5253 81.3244 40.0086 82.3069 40.2035C83.2894 40.3983 84.3073 40.2959 85.2321 39.9092C86.1568 39.5225 86.947 38.8688 87.5029 38.0307C88.0588 37.1925 88.3555 36.2074 88.3555 35.1998C88.3652 34.5253 88.24 33.8557 87.9872 33.231C87.7344 32.6062 87.3593 32.039 86.8841 31.5632C86.409 31.0873 85.8435 30.7125 85.2215 30.4611C84.5994 30.2097 83.9334 30.0868 83.2631 30.0998ZM83.2631 38.2958C82.6472 38.3391 82.0326 38.195 81.4992 37.8822C80.9658 37.5694 80.5382 37.1024 80.2721 36.5419C80.006 35.9813 79.9136 35.3532 80.007 34.7391C80.1003 34.1251 80.3751 33.5535 80.7956 33.0986C81.2161 32.6438 81.7629 32.3267 82.3648 32.1887C82.9668 32.0507 83.5961 32.098 84.1709 32.3247C84.7457 32.5513 85.2395 32.9467 85.5881 33.4594C85.9366 33.9722 86.1238 34.5785 86.1253 35.1998C86.1445 35.5934 86.0852 35.9869 85.9509 36.3571C85.8166 36.7273 85.6099 37.0666 85.3432 37.3552C85.0764 37.6437 84.7549 37.8756 84.3977 38.0372C84.0404 38.1987 83.6547 38.2866 83.2631 38.2958Z" fill="white"/>
<path fill-rule="evenodd" clip-rule="evenodd" d="M72.1601 30.0998C71.1581 30.1021 70.1794 30.4033 69.3474 30.9651C68.5155 31.5269 67.8677 32.3243 67.4859 33.2564C67.1041 34.1885 67.0054 35.2135 67.2023 36.2021C67.3992 37.1906 67.8829 38.0982 68.5922 38.8102C69.3016 39.5223 70.2047 40.0068 71.1876 40.2026C72.1704 40.3984 73.1889 40.2967 74.1144 39.9104C75.0398 39.524 75.8307 38.8703 76.3871 38.0319C76.9436 37.1935 77.2405 36.2079 77.2405 35.1998C77.2502 34.5253 77.125 33.8557 76.8722 33.231C76.6194 32.6062 76.2443 32.039 75.7692 31.5632C75.294 31.0873 74.7286 30.7125 74.1065 30.4611C73.4844 30.2097 72.8184 30.0868 72.1482 30.0998H72.1601ZM72.1601 38.2958C71.5439 38.3415 70.9283 38.1996 70.3934 37.8884C69.8585 37.5773 69.4291 37.1112 69.1611 36.5511C68.8931 35.9909 68.7989 35.3625 68.8908 34.7478C68.9827 34.133 69.2564 33.5603 69.6763 33.1042C70.0962 32.6481 70.6428 32.3298 71.245 32.1907C71.8471 32.0516 72.477 32.0981 73.0526 32.3242C73.6281 32.5503 74.1227 32.9455 74.4719 33.4584C74.8211 33.9713 75.0087 34.5781 75.0104 35.1998C75.0296 35.5934 74.9703 35.9869 74.8359 36.3571C74.7016 36.7273 74.495 37.0666 74.2282 37.3552C73.9614 37.6437 73.64 37.8756 73.2827 38.0372C72.9255 38.1987 72.5397 38.2866 72.1482 38.2958H72.1601Z" fill="white"/>
<path d="M58.9342 31.6718V33.8318H64.0862C64.0054 34.8491 63.5852 35.8091 62.8936 36.5558C62.3782 37.084 61.7586 37.4979 61.0746 37.7707C60.3906 38.0435 59.6575 38.1692 58.9223 38.1398C57.4041 38.1398 55.948 37.5329 54.8745 36.4527C53.801 35.3725 53.1979 33.9074 53.1979 32.3798C53.1979 30.8521 53.801 29.387 54.8745 28.3068C55.948 27.2266 57.4041 26.6198 58.9223 26.6198C60.3746 26.5959 61.7771 27.1526 62.8221 28.1678L64.3367 26.6438C63.6312 25.925 62.7896 25.356 61.8616 24.9706C60.9336 24.5851 59.9381 24.391 58.9342 24.3998C57.874 24.3582 56.8164 24.5325 55.8247 24.9121C54.833 25.2917 53.9277 25.8689 53.163 26.609C52.3983 27.3491 51.7899 28.2369 51.3744 29.2192C50.9588 30.2015 50.7446 31.2582 50.7446 32.3258C50.7446 33.3934 50.9588 34.45 51.3744 35.4323C51.7899 36.4146 52.3983 37.3025 53.163 38.0426C53.9277 38.7826 54.833 39.3598 55.8247 39.7394C56.8164 40.119 57.874 40.2933 58.9342 40.2518C59.955 40.2982 60.9739 40.1241 61.9222 39.7411C62.8705 39.3582 63.7263 38.7753 64.4321 38.0318C65.6815 36.6505 66.3486 34.8347 66.2925 32.9678C66.2964 32.5129 66.2564 32.0588 66.1733 31.6118L58.9342 31.6718Z" fill="white"/>
<path fill-rule="evenodd" clip-rule="evenodd" d="M112.971 33.3518C112.66 32.431 112.078 31.6271 111.303 31.0464C110.528 30.4657 109.595 30.1355 108.63 30.0998C107.977 30.0985 107.332 30.2318 106.732 30.4916C106.133 30.7514 105.594 31.132 105.146 31.61C104.699 32.088 104.354 32.6532 104.133 33.2706C103.912 33.8881 103.818 34.5446 103.859 35.1998C103.845 35.8705 103.965 36.5372 104.212 37.1602C104.459 37.7832 104.829 38.3496 105.299 38.8257C105.768 39.3017 106.329 39.6776 106.946 39.9309C107.564 40.1841 108.225 40.3096 108.892 40.2998C109.726 40.3043 110.548 40.1006 111.285 39.7069C112.022 39.3131 112.65 38.7417 113.114 38.0438L111.384 36.8438C111.126 37.2767 110.761 37.6348 110.324 37.883C109.887 38.1312 109.394 38.261 108.892 38.2598C108.375 38.2796 107.865 38.1425 107.427 37.8665C106.988 37.5904 106.643 37.188 106.435 36.7118L113.221 33.8918L112.971 33.3518ZM106.054 35.0558C106.029 34.6846 106.079 34.3123 106.2 33.9607C106.32 33.6091 106.509 33.2852 106.756 33.0081C107.003 32.7309 107.302 32.5061 107.636 32.3467C107.97 32.1873 108.332 32.0965 108.701 32.0798C109.086 32.0543 109.469 32.143 109.804 32.335C110.139 32.527 110.411 32.8138 110.585 33.1598L106.054 35.0558Z" fill="white"/>
<path d="M100.544 39.9998H102.774V24.9998H100.544V39.9998Z" fill="white"/>
<path fill-rule="evenodd" clip-rule="evenodd" d="M96.8945 31.2398H96.811C96.4749 30.8616 96.0631 30.5593 95.6027 30.3525C95.1424 30.1457 94.6437 30.0391 94.1396 30.0398C92.8363 30.1034 91.6073 30.6691 90.7072 31.6197C89.8072 32.5703 89.3052 33.8328 89.3052 35.1458C89.3052 36.4587 89.8072 37.7213 90.7072 38.6719C91.6073 39.6225 92.8363 40.1882 94.1396 40.2518C94.6449 40.2603 95.146 40.1573 95.6076 39.95C96.0691 39.7427 96.4799 39.4361 96.811 39.0518H96.8825V39.7838C96.8825 41.7398 95.845 42.7838 94.1753 42.7838C93.6193 42.7707 93.0796 42.5914 92.6251 42.2687C92.1706 41.946 91.8219 41.4945 91.6232 40.9718L89.6793 41.7878C90.0452 42.6834 90.6687 43.4486 91.4698 43.9853C92.2708 44.5219 93.213 44.8055 94.1753 44.7998C96.7871 44.7998 98.9457 43.2518 98.9457 39.4838V30.3998H96.8945V31.2398ZM92.3355 37.2988C92.8562 37.8709 93.5707 38.2264 94.3386 38.2954C94.7193 38.2796 95.093 38.1868 95.4373 38.0225C95.7842 37.857 96.094 37.6225 96.3482 37.3331C96.6024 37.0437 96.7956 36.7054 96.9161 36.3387C97.0367 35.9721 97.082 35.5846 97.0495 35.1998C97.0786 34.8166 97.0313 34.4314 96.9102 34.0669C96.7891 33.7025 96.5968 33.3661 96.3445 33.0776C96.0922 32.789 95.7851 32.5542 95.4412 32.387C95.0974 32.2198 94.7237 32.1235 94.3423 32.1038C93.573 32.172 92.857 32.5277 92.3355 33.1008C91.8139 33.6738 91.5247 34.4227 91.5247 35.1998C91.5247 35.9768 91.8139 36.7257 92.3355 37.2988Z" fill="white"/>
<path fill-rule="evenodd" clip-rule="evenodd" d="M118.087 24.9998V39.9998H120.317V34.3118H123.43C124.065 34.3577 124.703 34.2714 125.304 34.0582C125.905 33.8451 126.456 33.5096 126.923 33.0728C127.389 32.6359 127.761 32.1071 128.016 31.5192C128.27 30.9313 128.401 30.297 128.401 29.6558C128.401 29.0146 128.27 28.3803 128.016 27.7924C127.761 27.2045 127.389 26.6756 126.923 26.2388C126.456 25.8019 125.905 25.4665 125.304 25.2533C124.703 25.0401 124.065 24.9538 123.43 24.9998H118.087ZM123.418 32.1998H120.305V27.0878H123.465C124.144 27.0878 124.795 27.359 125.274 27.8417C125.754 28.3244 126.024 28.9791 126.024 29.6618C126.024 30.3444 125.754 30.9991 125.274 31.4819C124.795 31.9646 124.144 32.2358 123.465 32.2358L123.418 32.1998Z" fill="white"/>
<path fill-rule="evenodd" clip-rule="evenodd" d="M137.168 30.0398C136.356 29.9909 135.548 30.1818 134.842 30.589C134.137 30.9962 133.565 31.6019 133.197 32.3318L135.177 33.1598C135.372 32.7978 135.667 32.5007 136.027 32.3047C136.387 32.1087 136.796 32.0222 137.204 32.0558C137.487 32.0225 137.774 32.0463 138.048 32.1258C138.322 32.2052 138.577 32.3388 138.799 32.5186C139.021 32.6985 139.205 32.921 139.341 33.1732C139.477 33.4255 139.561 33.7024 139.589 33.9878V34.1438C138.873 33.7622 138.074 33.5643 137.264 33.5678C135.129 33.5678 132.97 34.7678 132.97 36.9398C132.991 37.4029 133.105 37.8571 133.303 38.2754C133.502 38.6938 133.781 39.0679 134.126 39.3755C134.471 39.6832 134.873 39.9182 135.31 40.0666C135.746 40.2151 136.208 40.2739 136.667 40.2398C137.229 40.2803 137.791 40.1681 138.295 39.9147C138.798 39.6613 139.225 39.2762 139.53 38.7998H139.601V39.9998H141.748V34.2278C141.748 31.5998 139.768 30.0758 137.228 30.0758L137.168 30.0398ZM136.894 38.2598C136.167 38.2598 135.153 37.8878 135.153 36.9878C135.153 35.7878 136.417 35.3918 137.538 35.3918C138.246 35.3742 138.947 35.5482 139.565 35.8958C139.491 36.5454 139.185 37.1461 138.706 37.5871C138.226 38.0282 137.603 38.2798 136.954 38.2958L136.894 38.2598Z" fill="white"/>
<path d="M149.571 30.3998L147.019 36.9038H146.948L144.3 30.3998H141.915L145.886 39.4958L143.62 44.5478H145.946L152.052 30.3998H149.571Z" fill="white"/>
<path d="M129.524 39.9998H131.754V24.9998H129.524V39.9998Z" fill="white"/>
<path fill-rule="evenodd" clip-rule="evenodd" d="M51.3374 21.1238H52.22V19.5998H57.682V21.1118H58.5645V18.7118H57.7655V12.3998H52.9951V15.9638C53.054 16.4625 53.0033 16.9682 52.8467 17.4451C52.6901 17.922 52.4313 18.3585 52.0888 18.7238H51.3374V21.1238ZM53.1979 18.7598C53.6963 17.93 53.9333 16.9677 53.8777 15.9998V13.2878H56.7757V18.7598H53.1979Z" fill="white"/>
<path fill-rule="evenodd" clip-rule="evenodd" d="M63.0725 19.753C64.0558 19.753 64.9991 19.3614 65.6962 18.6638C66.3766 17.9434 66.756 16.9876 66.756 15.9938C66.756 15 66.3766 14.0442 65.6962 13.3238C65.3526 12.9755 64.9439 12.699 64.4936 12.5104C64.0433 12.3217 63.5603 12.2246 63.0725 12.2246C62.5848 12.2246 62.1018 12.3217 61.6515 12.5104C61.2012 12.699 60.7925 12.9755 60.4488 13.3238C59.7712 14.0455 59.3936 15.0008 59.3936 15.9938C59.3936 16.9867 59.7712 17.942 60.4488 18.6638C61.146 19.3614 62.0893 19.753 63.0725 19.753ZM63.0725 18.8716C62.3439 18.8716 61.6449 18.5811 61.1286 18.0638C60.6191 17.4986 60.3369 16.7628 60.3369 15.9998C60.3369 15.2367 60.6191 14.5009 61.1286 13.9358C61.6449 13.4184 62.3439 13.128 63.0725 13.128C63.8012 13.128 64.5002 13.4184 65.0165 13.9358C65.526 14.5009 65.8082 15.2367 65.8082 15.9998C65.8082 16.7628 65.526 17.4986 65.0165 18.0638C64.5002 18.5811 63.8012 18.8716 63.0725 18.8716Z" fill="white"/>
<path d="M69.9467 19.4897C70.4034 19.6751 70.8926 19.7656 71.3849 19.7558C71.9437 19.7666 72.4978 19.6518 73.0068 19.4198C73.4677 19.1995 73.8749 18.8799 74.1994 18.4838L73.5554 17.8358C73.2933 18.1657 72.9614 18.4327 72.5839 18.6175C72.2064 18.8022 71.7928 18.9 71.373 18.9038C71.0069 18.9133 70.6427 18.8481 70.3025 18.712C69.9622 18.5758 69.6529 18.3716 69.3933 18.1118C68.8762 17.5432 68.5894 16.8005 68.5894 16.0298C68.5894 15.2591 68.8762 14.5163 69.3933 13.9478C69.6529 13.6879 69.9622 13.4837 70.3025 13.3476C70.6427 13.2114 71.0069 13.1462 71.373 13.1558C71.7532 13.1368 72.1324 13.2097 72.4789 13.3684C72.8254 13.5271 73.1291 13.7669 73.3646 14.0678L74.0086 13.4438C73.6898 13.0573 73.2881 12.7485 72.8337 12.5407C72.3793 12.3329 71.8839 12.2313 71.3849 12.2438C70.8926 12.2339 70.4034 12.3244 69.9467 12.5099C69.4901 12.6953 69.0754 12.9718 68.7278 13.3227C68.3802 13.6736 68.1067 14.0917 67.9239 14.5518C67.7411 15.0119 67.6527 15.5044 67.664 15.9998C67.6527 16.4951 67.7411 16.9877 67.9239 17.4477C68.1067 17.9078 68.3802 18.3259 68.7278 18.6768C69.0754 19.0278 69.4901 19.3043 69.9467 19.4897Z" fill="white"/>
<path d="M77.0259 19.5998H77.9442V13.2878H79.9358V12.3998H75.0223V13.2878H77.0259V19.5998Z" fill="white"/>
<path d="M83.5494 18.4718L86.2565 12.3998H85.1713L83.454 16.5398L81.6889 12.4118H80.6037L82.9888 17.7278L82.7265 18.3038C82.6589 18.4806 82.5482 18.6374 82.4045 18.7598C82.2539 18.8511 82.0789 18.8931 81.9036 18.8798C81.7359 18.8782 81.5715 18.8327 81.4265 18.7478L81.188 19.5998C81.4137 19.6996 81.6571 19.7526 81.9036 19.7558C82.2763 19.7396 82.6348 19.6074 82.9296 19.3774C83.2245 19.1474 83.441 18.831 83.5494 18.4718Z" fill="white"/>
<path d="M92.47 12.3998H87.2941V19.5998H88.2124V13.2878H91.5517V19.5998H92.47V12.3998Z" fill="white"/>
<path d="M95.0221 12.3998H94.1038V19.5998H95.0221V16.3478H98.5999V19.5998H99.5182V12.3998H98.5999V15.4838H95.0221V12.3998Z" fill="white"/>
<path fill-rule="evenodd" clip-rule="evenodd" d="M104.396 19.753C105.379 19.753 106.322 19.3614 107.02 18.6638C107.7 17.9434 108.079 16.9876 108.079 15.9938C108.079 15 107.7 14.0442 107.02 13.3238C106.676 12.9755 106.267 12.699 105.817 12.5104C105.367 12.3217 104.884 12.2246 104.396 12.2246C103.908 12.2246 103.425 12.3217 102.975 12.5104C102.525 12.699 102.116 12.9755 101.772 13.3238C101.095 14.0455 100.717 15.0008 100.717 15.9938C100.717 16.9867 101.095 17.942 101.772 18.6638C102.469 19.3614 103.413 19.753 104.396 19.753ZM104.396 18.8716C103.667 18.8716 102.968 18.5811 102.452 18.0638C101.942 17.4986 101.66 16.7628 101.66 15.9998C101.66 15.2367 101.942 14.5009 102.452 13.9358C102.968 13.4184 103.667 13.128 104.396 13.128C105.125 13.128 105.824 13.4184 106.34 13.9358C106.849 14.5009 107.132 15.2367 107.132 15.9998C107.132 16.7628 106.849 17.4986 106.34 18.0638C105.824 18.5811 105.125 18.8716 104.396 18.8716Z" fill="white"/>
<path fill-rule="evenodd" clip-rule="evenodd" d="M114.414 12.3998H111.826V19.5998L114.569 19.5518C115.134 19.5597 115.68 19.3492 116.095 18.9638C116.303 18.7823 116.468 18.5571 116.579 18.304C116.691 18.051 116.745 17.7764 116.739 17.4998C116.745 17.1261 116.623 16.7618 116.393 16.4678C116.172 16.1765 115.869 15.959 115.523 15.8438C115.807 15.718 116.051 15.5143 116.226 15.2558C116.403 14.9896 116.494 14.6756 116.489 14.3558C116.494 14.0903 116.441 13.827 116.334 13.5844C116.227 13.3417 116.068 13.1258 115.869 12.9518C115.472 12.5871 114.951 12.3896 114.414 12.3998ZM114.414 15.4838H112.744L112.792 13.2518H114.497C114.648 13.2472 114.797 13.2761 114.935 13.3362C115.073 13.3964 115.197 13.4863 115.296 13.5998C115.396 13.7026 115.473 13.8244 115.525 13.9581C115.577 14.0918 115.601 14.2346 115.596 14.378C115.592 14.5213 115.559 14.6623 115.499 14.7925C115.439 14.9227 115.354 15.0394 115.248 15.1358C115.143 15.2514 115.013 15.3424 114.869 15.4025C114.725 15.4626 114.57 15.4903 114.414 15.4838ZM114.593 18.7118H112.744L112.78 16.3238H114.593C114.909 16.3238 115.212 16.4502 115.436 16.6752C115.659 16.9003 115.785 17.2055 115.785 17.5238C115.781 17.8286 115.661 18.1203 115.451 18.3398C115.344 18.4616 115.212 18.5581 115.063 18.6224C114.915 18.6867 114.754 18.7172 114.593 18.7118Z" fill="white"/>
<path fill-rule="evenodd" clip-rule="evenodd" d="M83.2631 30.0998C82.2617 30.1045 81.2841 30.4076 80.4537 30.9709C79.6234 31.5342 78.9774 32.3323 78.5975 33.2647C78.2175 34.197 78.1205 35.2216 78.3188 36.2094C78.517 37.1971 79.0016 38.1036 79.7114 38.8144C80.4212 39.5253 81.3244 40.0086 82.3069 40.2035C83.2894 40.3983 84.3073 40.2959 85.2321 39.9092C86.1568 39.5225 86.947 38.8688 87.5029 38.0307C88.0588 37.1925 88.3555 36.2074 88.3555 35.1998C88.3652 34.5253 88.24 33.8557 87.9872 33.231C87.7344 32.6062 87.3593 32.039 86.8841 31.5632C86.409 31.0873 85.8435 30.7125 85.2215 30.4611C84.5994 30.2097 83.9334 30.0868 83.2631 30.0998ZM83.2631 38.2958C82.6472 38.3391 82.0326 38.195 81.4992 37.8822C80.9658 37.5694 80.5382 37.1024 80.2721 36.5419C80.006 35.9813 79.9136 35.3532 80.007 34.7391C80.1003 34.1251 80.3751 33.5535 80.7956 33.0986C81.2161 32.6438 81.7629 32.3267 82.3648 32.1887C82.9668 32.0507 83.5961 32.098 84.1709 32.3247C84.7457 32.5513 85.2395 32.9467 85.5881 33.4594C85.9366 33.9722 86.1238 34.5785 86.1253 35.1998C86.1445 35.5934 86.0852 35.9869 85.9509 36.3571C85.8166 36.7273 85.6099 37.0666 85.3432 37.3552C85.0764 37.6437 84.7549 37.8756 84.3977 38.0372C84.0404 38.1987 83.6547 38.2866 83.2631 38.2958Z" stroke="white" stroke-width="0.2" stroke-miterlimit="10"/>
<path fill-rule="evenodd" clip-rule="evenodd" d="M72.1601 30.0998C71.1581 30.1021 70.1794 30.4033 69.3474 30.9651C68.5155 31.5269 67.8677 32.3243 67.4859 33.2564C67.1041 34.1885 67.0054 35.2135 67.2023 36.2021C67.3992 37.1906 67.8829 38.0982 68.5922 38.8102C69.3016 39.5223 70.2047 40.0068 71.1876 40.2026C72.1704 40.3984 73.1889 40.2967 74.1144 39.9104C75.0398 39.524 75.8307 38.8703 76.3871 38.0319C76.9436 37.1935 77.2405 36.2079 77.2405 35.1998C77.2502 34.5253 77.125 33.8557 76.8722 33.231C76.6194 32.6062 76.2443 32.039 75.7692 31.5632C75.294 31.0873 74.7286 30.7125 74.1065 30.4611C73.4844 30.2097 72.8184 30.0868 72.1482 30.0998H72.1601ZM72.1601 38.2958C71.5439 38.3415 70.9283 38.1996 70.3934 37.8884C69.8585 37.5773 69.4291 37.1112 69.1611 36.5511C68.8931 35.9909 68.7989 35.3625 68.8908 34.7478C68.9827 34.133 69.2564 33.5603 69.6763 33.1042C70.0962 32.6481 70.6428 32.3298 71.245 32.1907C71.8471 32.0516 72.477 32.0981 73.0526 32.3242C73.6281 32.5503 74.1227 32.9455 74.4719 33.4584C74.8211 33.9713 75.0087 34.5781 75.0104 35.1998C75.0296 35.5934 74.9703 35.9869 74.8359 36.3571C74.7016 36.7273 74.495 37.0666 74.2282 37.3552C73.9614 37.6437 73.64 37.8756 73.2827 38.0372C72.9255 38.1987 72.5397 38.2866 72.1482 38.2958H72.1601Z" stroke="white" stroke-width="0.2" stroke-miterlimit="10"/>
<path d="M58.9342 31.6718V33.8318H64.0862C64.0054 34.8491 63.5852 35.8091 62.8936 36.5558C62.3782 37.084 61.7586 37.4979 61.0746 37.7707C60.3906 38.0435 59.6575 38.1692 58.9223 38.1398C57.4041 38.1398 55.948 37.5329 54.8745 36.4527C53.801 35.3725 53.1979 33.9074 53.1979 32.3798C53.1979 30.8521 53.801 29.387 54.8745 28.3068C55.948 27.2266 57.4041 26.6198 58.9223 26.6198C60.3746 26.5959 61.7771 27.1526 62.8221 28.1678L64.3367 26.6438C63.6312 25.925 62.7896 25.356 61.8616 24.9706C60.9336 24.5851 59.9381 24.391 58.9342 24.3998C57.874 24.3582 56.8164 24.5325 55.8247 24.9121C54.833 25.2917 53.9277 25.8689 53.163 26.609C52.3983 27.3491 51.7899 28.2369 51.3744 29.2192C50.9588 30.2015 50.7446 31.2582 50.7446 32.3258C50.7446 33.3934 50.9588 34.45 51.3744 35.4323C51.7899 36.4146 52.3983 37.3025 53.163 38.0426C53.9277 38.7826 54.833 39.3598 55.8247 39.7394C56.8164 40.119 57.874 40.2933 58.9342 40.2518C59.955 40.2982 60.9739 40.1241 61.9222 39.7411C62.8705 39.3582 63.7263 38.7753 64.4321 38.0318C65.6815 36.6505 66.3486 34.8347 66.2925 32.9678C66.2964 32.5129 66.2564 32.0588 66.1733 31.6118L58.9342 31.6718Z" stroke="white" stroke-width="0.2" stroke-miterlimit="10"/>
<path fill-rule="evenodd" clip-rule="evenodd" d="M112.971 33.3518C112.66 32.431 112.078 31.6271 111.303 31.0464C110.528 30.4657 109.595 30.1355 108.63 30.0998C107.977 30.0985 107.332 30.2318 106.732 30.4916C106.133 30.7514 105.594 31.132 105.146 31.61C104.699 32.088 104.354 32.6532 104.133 33.2706C103.912 33.8881 103.818 34.5446 103.859 35.1998C103.845 35.8705 103.965 36.5372 104.212 37.1602C104.459 37.7832 104.829 38.3496 105.299 38.8257C105.768 39.3017 106.329 39.6776 106.946 39.9309C107.564 40.1841 108.225 40.3096 108.892 40.2998C109.726 40.3043 110.548 40.1006 111.285 39.7069C112.022 39.3131 112.65 38.7417 113.114 38.0438L111.384 36.8438C111.126 37.2767 110.761 37.6348 110.324 37.883C109.887 38.1312 109.394 38.261 108.892 38.2598C108.375 38.2796 107.865 38.1425 107.427 37.8665C106.988 37.5904 106.643 37.188 106.435 36.7118L113.221 33.8918L112.971 33.3518ZM106.054 35.0558C106.029 34.6846 106.079 34.3123 106.2 33.9607C106.32 33.6091 106.509 33.2852 106.756 33.0081C107.003 32.7309 107.302 32.5061 107.636 32.3467C107.97 32.1873 108.332 32.0965 108.701 32.0798C109.086 32.0543 109.469 32.143 109.804 32.335C110.139 32.527 110.411 32.8138 110.585 33.1598L106.054 35.0558Z" stroke="white" stroke-width="0.2" stroke-miterlimit="10"/>
<path d="M100.544 39.9998H102.774V24.9998H100.544V39.9998Z" stroke="white" stroke-width="0.2" stroke-miterlimit="10"/>
<path fill-rule="evenodd" clip-rule="evenodd" d="M96.8945 31.2398H96.811C96.4749 30.8616 96.0631 30.5593 95.6027 30.3525C95.1424 30.1457 94.6437 30.0391 94.1396 30.0398C92.8363 30.1034 91.6073 30.6691 90.7072 31.6197C89.8072 32.5703 89.3052 33.8328 89.3052 35.1458C89.3052 36.4587 89.8072 37.7213 90.7072 38.6719C91.6073 39.6225 92.8363 40.1882 94.1396 40.2518C94.6449 40.2603 95.146 40.1573 95.6076 39.95C96.0691 39.7427 96.4799 39.4361 96.811 39.0518H96.8825V39.7838C96.8825 41.7398 95.845 42.7838 94.1753 42.7838C93.6193 42.7707 93.0796 42.5914 92.6251 42.2687C92.1706 41.946 91.8219 41.4945 91.6232 40.9718L89.6793 41.7878C90.0452 42.6834 90.6687 43.4486 91.4698 43.9853C92.2708 44.5219 93.213 44.8055 94.1753 44.7998C96.7871 44.7998 98.9457 43.2518 98.9457 39.4838V30.3998H96.8945V31.2398ZM92.3355 37.2988C92.8562 37.8709 93.5707 38.2264 94.3386 38.2954C94.7193 38.2796 95.093 38.1868 95.4373 38.0225C95.7842 37.857 96.094 37.6225 96.3482 37.3331C96.6024 37.0437 96.7956 36.7054 96.9161 36.3387C97.0367 35.9721 97.082 35.5846 97.0495 35.1998C97.0786 34.8166 97.0313 34.4314 96.9102 34.0669C96.7891 33.7025 96.5968 33.3661 96.3445 33.0776C96.0922 32.789 95.7851 32.5542 95.4412 32.387C95.0974 32.2198 94.7237 32.1235 94.3423 32.1038C93.573 32.172 92.857 32.5277 92.3355 33.1008C91.8139 33.6738 91.5247 34.4227 91.5247 35.1998C91.5247 35.9768 91.8139 36.7257 92.3355 37.2988Z" stroke="white" stroke-width="0.2" stroke-miterlimit="10"/>
<path fill-rule="evenodd" clip-rule="evenodd" d="M118.087 24.9998V39.9998H120.317V34.3118H123.43C124.065 34.3577 124.703 34.2714 125.304 34.0582C125.905 33.8451 126.456 33.5096 126.923 33.0728C127.389 32.6359 127.761 32.1071 128.016 31.5192C128.27 30.9313 128.401 30.297 128.401 29.6558C128.401 29.0146 128.27 28.3803 128.016 27.7924C127.761 27.2045 127.389 26.6756 126.923 26.2388C126.456 25.8019 125.905 25.4665 125.304 25.2533C124.703 25.0401 124.065 24.9538 123.43 24.9998H118.087ZM123.418 32.1998H120.305V27.0878H123.465C124.144 27.0878 124.795 27.359 125.274 27.8417C125.754 28.3244 126.024 28.9791 126.024 29.6618C126.024 30.3444 125.754 30.9991 125.274 31.4819C124.795 31.9646 124.144 32.2358 123.465 32.2358L123.418 32.1998Z" stroke="white" stroke-width="0.2" stroke-miterlimit="10"/>
<path fill-rule="evenodd" clip-rule="evenodd" d="M137.168 30.0398C136.356 29.9909 135.548 30.1818 134.842 30.589C134.137 30.9962 133.565 31.6019 133.197 32.3318L135.177 33.1598C135.372 32.7978 135.667 32.5007 136.027 32.3047C136.387 32.1087 136.796 32.0222 137.204 32.0558C137.487 32.0225 137.774 32.0463 138.048 32.1258C138.322 32.2052 138.577 32.3388 138.799 32.5186C139.021 32.6985 139.205 32.921 139.341 33.1732C139.477 33.4255 139.561 33.7024 139.589 33.9878V34.1438C138.873 33.7622 138.074 33.5643 137.264 33.5678C135.129 33.5678 132.97 34.7678 132.97 36.9398C132.991 37.4029 133.105 37.8571 133.303 38.2754C133.502 38.6938 133.781 39.0679 134.126 39.3755C134.471 39.6832 134.873 39.9182 135.31 40.0666C135.746 40.2151 136.208 40.2739 136.667 40.2398C137.229 40.2803 137.791 40.1681 138.295 39.9147C138.798 39.6613 139.225 39.2762 139.53 38.7998H139.601V39.9998H141.748V34.2278C141.748 31.5998 139.768 30.0758 137.228 30.0758L137.168 30.0398ZM136.894 38.2598C136.167 38.2598 135.153 37.8878 135.153 36.9878C135.153 35.7878 136.417 35.3918 137.538 35.3918C138.246 35.3742 138.947 35.5482 139.565 35.8958C139.491 36.5454 139.185 37.1461 138.706 37.5871C138.226 38.0282 137.603 38.2798 136.954 38.2958L136.894 38.2598Z" stroke="white" stroke-width="0.2" stroke-miterlimit="10"/>
<path d="M149.571 30.3998L147.019 36.9038H146.948L144.3 30.3998H141.915L145.886 39.4958L143.62 44.5478H145.946L152.052 30.3998H149.571Z" stroke="white" stroke-width="0.2" stroke-miterlimit="10"/>
<path d="M129.524 39.9998H131.754V24.9998H129.524V39.9998Z" stroke="white" stroke-width="0.2" stroke-miterlimit="10"/>
<path fill-rule="evenodd" clip-rule="evenodd" d="M51.3374 21.1238H52.22V19.5998H57.682V21.1118H58.5645V18.7118H57.7655V12.3998H52.9951V15.9638C53.054 16.4625 53.0033 16.9682 52.8467 17.4451C52.6901 17.922 52.4313 18.3585 52.0888 18.7238H51.3374V21.1238ZM53.1979 18.7598C53.6963 17.93 53.9333 16.9677 53.8777 15.9998V13.2878H56.7757V18.7598H53.1979Z" stroke="white" stroke-width="0.2" stroke-miterlimit="10"/>
<path fill-rule="evenodd" clip-rule="evenodd" d="M63.0725 19.753C64.0558 19.753 64.9991 19.3614 65.6962 18.6638C66.3766 17.9434 66.756 16.9876 66.756 15.9938C66.756 15 66.3766 14.0442 65.6962 13.3238C65.3526 12.9755 64.9439 12.699 64.4936 12.5104C64.0433 12.3217 63.5603 12.2246 63.0725 12.2246C62.5848 12.2246 62.1018 12.3217 61.6515 12.5104C61.2012 12.699 60.7925 12.9755 60.4488 13.3238C59.7712 14.0455 59.3936 15.0008 59.3936 15.9938C59.3936 16.9867 59.7712 17.942 60.4488 18.6638C61.146 19.3614 62.0893 19.753 63.0725 19.753ZM63.0725 18.8716C62.3439 18.8716 61.6449 18.5811 61.1286 18.0638C60.6191 17.4986 60.3369 16.7628 60.3369 15.9998C60.3369 15.2367 60.6191 14.5009 61.1286 13.9358C61.6449 13.4184 62.3439 13.128 63.0725 13.128C63.8012 13.128 64.5002 13.4184 65.0165 13.9358C65.526 14.5009 65.8082 15.2367 65.8082 15.9998C65.8082 16.7628 65.526 17.4986 65.0165 18.0638C64.5002 18.5811 63.8012 18.8716 63.0725 18.8716Z" stroke="white" stroke-width="0.2" stroke-miterlimit="10"/>
<path d="M69.9467 19.4897C70.4034 19.6751 70.8926 19.7656 71.3849 19.7558C71.9437 19.7666 72.4978 19.6518 73.0068 19.4198C73.4677 19.1995 73.8749 18.8799 74.1994 18.4838L73.5554 17.8358C73.2933 18.1657 72.9614 18.4327 72.5839 18.6175C72.2064 18.8022 71.7928 18.9 71.373 18.9038C71.0069 18.9133 70.6427 18.8481 70.3025 18.712C69.9622 18.5758 69.6529 18.3716 69.3933 18.1118C68.8762 17.5432 68.5894 16.8005 68.5894 16.0298C68.5894 15.2591 68.8762 14.5163 69.3933 13.9478C69.6529 13.6879 69.9622 13.4837 70.3025 13.3476C70.6427 13.2114 71.0069 13.1462 71.373 13.1558C71.7532 13.1368 72.1324 13.2097 72.4789 13.3684C72.8254 13.5271 73.1291 13.7669 73.3646 14.0678L74.0086 13.4438C73.6898 13.0573 73.2881 12.7485 72.8337 12.5407C72.3793 12.3329 71.8839 12.2313 71.3849 12.2438C70.8926 12.2339 70.4034 12.3244 69.9467 12.5099C69.4901 12.6953 69.0754 12.9718 68.7278 13.3227C68.3802 13.6736 68.1067 14.0917 67.9239 14.5518C67.7411 15.0119 67.6527 15.5044 67.664 15.9998C67.6527 16.4951 67.7411 16.9877 67.9239 17.4477C68.1067 17.9078 68.3802 18.3259 68.7278 18.6768C69.0754 19.0278 69.4901 19.3043 69.9467 19.4897Z" stroke="white" stroke-width="0.2" stroke-miterlimit="10"/>
<path d="M77.0259 19.5998H77.9442V13.2878H79.9358V12.3998H75.0223V13.2878H77.0259V19.5998Z" stroke="white" stroke-width="0.2" stroke-miterlimit="10"/>
<path d="M83.5494 18.4718L86.2565 12.3998H85.1713L83.454 16.5398L81.6889 12.4118H80.6037L82.9888 17.7278L82.7265 18.3038C82.6589 18.4806 82.5482 18.6374 82.4045 18.7598C82.2539 18.8511 82.0789 18.8931 81.9036 18.8798C81.7359 18.8782 81.5715 18.8327 81.4265 18.7478L81.188 19.5998C81.4137 19.6996 81.6571 19.7526 81.9036 19.7558C82.2763 19.7396 82.6348 19.6074 82.9296 19.3774C83.2245 19.1474 83.441 18.831 83.5494 18.4718Z" stroke="white" stroke-width="0.2" stroke-miterlimit="10"/>
<path d="M92.47 12.3998H87.2941V19.5998H88.2124V13.2878H91.5517V19.5998H92.47V12.3998Z" stroke="white" stroke-width="0.2" stroke-miterlimit="10"/>
<path d="M95.0221 12.3998H94.1038V19.5998H95.0221V16.3478H98.5999V19.5998H99.5182V12.3998H98.5999V15.4838H95.0221V12.3998Z" stroke="white" stroke-width="0.2" stroke-miterlimit="10"/>
<path fill-rule="evenodd" clip-rule="evenodd" d="M104.396 19.753C105.379 19.753 106.322 19.3614 107.02 18.6638C107.7 17.9434 108.079 16.9876 108.079 15.9938C108.079 15 107.7 14.0442 107.02 13.3238C106.676 12.9755 106.267 12.699 105.817 12.5104C105.367 12.3217 104.884 12.2246 104.396 12.2246C103.908 12.2246 103.425 12.3217 102.975 12.5104C102.525 12.699 102.116 12.9755 101.772 13.3238C101.095 14.0455 100.717 15.0008 100.717 15.9938C100.717 16.9867 101.095 17.942 101.772 18.6638C102.469 19.3614 103.413 19.753 104.396 19.753ZM104.396 18.8716C103.667 18.8716 102.968 18.5811 102.452 18.0638C101.942 17.4986 101.66 16.7628 101.66 15.9998C101.66 15.2367 101.942 14.5009 102.452 13.9358C102.968 13.4184 103.667 13.128 104.396 13.128C105.125 13.128 105.824 13.4184 106.34 13.9358C106.849 14.5009 107.132 15.2367 107.132 15.9998C107.132 16.7628 106.849 17.4986 106.34 18.0638C105.824 18.5811 105.125 18.8716 104.396 18.8716Z" stroke="white" stroke-width="0.2" stroke-miterlimit="10"/>
<path fill-rule="evenodd" clip-rule="evenodd" d="M114.414 12.3998H111.826V19.5998L114.569 19.5518C115.134 19.5597 115.68 19.3492 116.095 18.9638C116.303 18.7823 116.468 18.5571 116.579 18.304C116.691 18.051 116.745 17.7764 116.739 17.4998C116.745 17.1261 116.623 16.7618 116.393 16.4678C116.172 16.1765 115.869 15.959 115.523 15.8438C115.807 15.718 116.051 15.5143 116.226 15.2558C116.403 14.9896 116.494 14.6756 116.489 14.3558C116.494 14.0903 116.441 13.827 116.334 13.5844C116.227 13.3417 116.068 13.1258 115.869 12.9518C115.472 12.5871 114.951 12.3896 114.414 12.3998ZM114.414 15.4838H112.744L112.792 13.2518H114.497C114.648 13.2472 114.797 13.2761 114.935 13.3362C115.073 13.3964 115.197 13.4863 115.296 13.5998C115.396 13.7026 115.473 13.8244 115.525 13.9581C115.577 14.0918 115.601 14.2346 115.596 14.378C115.592 14.5213 115.559 14.6623 115.499 14.7925C115.439 14.9227 115.354 15.0394 115.248 15.1358C115.143 15.2514 115.013 15.3424 114.869 15.4025C114.725 15.4626 114.57 15.4903 114.414 15.4838ZM114.593 18.7118H112.744L112.78 16.3238H114.593C114.909 16.3238 115.212 16.4502 115.436 16.6752C115.659 16.9003 115.785 17.2055 115.785 17.5238C115.781 17.8286 115.661 18.1203 115.451 18.3398C115.344 18.4616 115.212 18.5581 115.063 18.6224C114.915 18.6867 114.754 18.7172 114.593 18.7118Z" stroke="white" stroke-width="0.2" stroke-miterlimit="10"/>
<path d="M14.4508 13.0479C14.0621 13.5172 13.8659 14.118 13.9022 14.7279V41.2719C13.8659 41.8817 14.0621 42.4825 14.4508 42.9519L14.5343 43.0359L29.3105 28.1799V27.8319L14.5343 12.9639L14.4508 13.0479Z" fill="url(#paint0_linear)"/>
<path d="M34.2002 33.1363L29.3105 28.1803V27.8323L34.2002 22.8643L34.3075 22.9243L40.1631 26.2723C41.8328 27.2203 41.8328 28.7803 40.1631 29.7403L34.3314 33.0763L34.2002 33.1363Z" fill="url(#paint1_linear)"/>
<path d="M34.3431 33.064L29.3104 28L14.4507 42.952C14.791 43.253 15.2251 43.425 15.6781 43.4381C16.131 43.4513 16.5743 43.3048 16.9313 43.024L34.3551 33.064" fill="url(#paint2_linear)"/>
<path d="M34.3428 22.936L16.9191 12.976C16.5621 12.6952 16.1188 12.5487 15.6659 12.5618C15.2129 12.575 14.7788 12.7469 14.4385 13.048L29.3101 28L34.3428 22.936Z" fill="url(#paint3_linear)"/>
<path opacity="0.2" d="M34.2 32.9561L16.9194 42.8561C16.575 43.1151 16.1567 43.2551 15.7268 43.2551C15.2968 43.2551 14.8785 43.1151 14.5342 42.8561L14.4507 42.9401L14.5342 43.0241C14.8777 43.2849 15.2964 43.4261 15.7268 43.4261C16.1571 43.4261 16.5758 43.2849 16.9194 43.0241L34.3431 33.0641L34.2 32.9561Z" fill="black"/>
<path opacity="0.12" d="M14.4508 42.784C14.0621 42.3147 13.8659 41.7138 13.9022 41.104V41.284C13.8659 41.8938 14.0621 42.4947 14.4508 42.964L14.5343 42.88L14.4508 42.784ZM40.1631 29.56L34.2001 32.956L34.3075 33.064L40.1631 29.728C40.4954 29.571 40.7806 29.3285 40.99 29.0251C41.1994 28.7217 41.3255 28.3681 41.3557 28C41.2886 28.3344 41.1463 28.649 40.9395 28.9194C40.7328 29.1898 40.4672 29.409 40.1631 29.56Z" fill="black"/>
<path opacity="0.25" d="M16.9193 13.1439L40.163 26.4399C40.467 26.5909 40.7326 26.8101 40.9394 27.0805C41.1461 27.3509 41.2885 27.6655 41.3555 27.9999C41.3254 27.6318 41.1992 27.2782 40.9898 26.9748C40.7804 26.6714 40.4952 26.429 40.163 26.2719L16.9193 12.9759C15.2497 12.0279 13.8901 12.8199 13.8901 14.7399V14.9199C13.9259 12.9879 15.2616 12.1959 16.9193 13.1439Z" fill="white"/>
<rect x="1" y="1" width="163" height="54" rx="7" stroke="white" stroke-opacity="0.3" stroke-width="2"/>

</symbol><symbol id="left" viewBox="0 0 8 12">
<path fill-rule="evenodd" clip-rule="evenodd" d="M6.29304 0.292848L7.70726 1.70706L3.41436 5.99995L7.70726 10.2928L6.29304 11.7071L0.585937 5.99995L6.29304 0.292848Z" fill="black"/>
</symbol></svg>