<svg width="14" height="9" viewBox="0 0 14 9" fill="none" xmlns="http://www.w3.org/2000/svg">
<path d="M9.64645 7.3033C9.45118 7.49856 9.45118 7.81515 9.64645 8.01041C9.84171 8.20567 10.1583 8.20567 10.3536 8.01041L13.8536 4.51041C14.0488 4.31515 14.0488 3.99856 13.8536 3.8033L10.1967 0.146446C10.0014 -0.0488155 9.68485 -0.0488155 9.48959 0.146446C9.29433 0.341709 9.29433 0.658292 9.48959 0.853553L12.293 3.65693L0.5 3.65693C0.223858 3.65693 2.41412e-08 3.88079 0 4.15693C-2.41411e-08 4.43307 0.223858 4.65693 0.5 4.65693L12.2928 4.65693L9.64645 7.3033Z" fill="#009ee5"/>
</svg>
