<svg xmlns="http://www.w3.org/2000/svg" xmlns:xlink="http://www.w3.org/1999/xlink" width="265.037" height="71.97" viewBox="0 0 265.037 71.97"><defs><style>.a{fill:none;}.b{fill:#231f20;}.c{clip-path:url(#a);}.d{fill:url(#b);}</style><clipPath id="a"><rect class="a" width="119.671" height="9.734"/></clipPath><linearGradient id="b" x1="1" y1="0.5" x2="0.327" y2="0.5" gradientUnits="objectBoundingBox"><stop offset="0" stop-color="#71d6c8"/><stop offset="1" stop-color="#ffdecb"/></linearGradient></defs><path class="b" d="M42.981.343A36.288,36.288,0,0,1,68.819,10.578a35.465,35.465,0,0,1,7.766,11.273A34.1,34.1,0,0,1,79.376,35.7,33.962,33.962,0,0,1,76.584,49.55,35.143,35.143,0,0,1,57.259,68.3a35.787,35.787,0,0,1-14.315,2.791H15.89V.343Zm9.09,55.684a19.719,19.719,0,0,0,6.871-4.688,22.188,22.188,0,0,0,4.4-7.157,22.76,22.76,0,0,0,1.575-8.589,23.118,23.118,0,0,0-1.575-8.66,21.83,21.83,0,0,0-4.4-6.978,21.007,21.007,0,0,0-6.871-4.688,24.049,24.049,0,0,0-9.09-1.825H30.348V57.817H42.981a21.472,21.472,0,0,0,9.09-1.789" transform="translate(40.975 0.873)"/><path class="b" d="M21.472,0A21.472,21.472,0,1,0,42.944,21.472,21.472,21.472,0,0,0,21.472,0m0,30.49a8.875,8.875,0,1,1,6.42-2.6,8.875,8.875,0,0,1-6.42,2.6"/><path class="b" d="M43.451,12.453v9.054H40.66V1.61h2.791v8.446h2L52.148,1.61h3.364l-7.658,9.412L55.8,21.507H52.47l-6.943-9.054Z" transform="translate(104.849 4.152)"/><path class="b" d="M58.982,4.043H51.825V7.622c-.322,8.625-1.682,14.028-5.762,14.028H45.24V19.11h.394c2.648,0,3.328-5.654,3.579-12.454V1.61H61.7v19.9H58.875Z" transform="translate(116.659 4.152)"/><path class="b" d="M54.131,21.507H51.34V1.61h2.791V17.392L64.832,1.61h2.791v19.9H64.832V5.725Z" transform="translate(132.389 4.152)"/><path class="b" d="M60.151,4.187V21.507H57.36V1.61h4.688L67.13,18.179,72.211,1.61H76.9v19.9H74.108V4.187L68.6,21.507H65.663Z" transform="translate(147.913 4.152)"/><path class="b" d="M74.219,1.61l7.479,19.9H78.692L77.117,17.32H67.992l-1.539,4.294H63.59l7.372-19.9Zm2.04,13.205L72.68,4.437,69.1,14.815Z" transform="translate(163.978 4.152)"/><path class="b" d="M68.14,4.043V1.61H83.886V4.043H77.409V21.507H74.617V4.043Z" transform="translate(175.711 4.152)"/><path class="b" d="M40.569,20.088a9.376,9.376,0,1,1,18.645,0,9.376,9.376,0,1,1-18.645,0m15.782,0c0-5.153-2.827-7.945-6.477-7.945s-6.442,2.791-6.442,7.945,2.827,7.945,6.442,7.945,6.477-2.827,6.477-7.945" transform="translate(104.475 25.039)"/><path class="b" d="M62.9,29.727H60.111V20.709H49.661v9.018H46.87V9.83h2.791v8.446h10.45V9.83H62.9Z" transform="translate(120.862 25.348)"/><path class="b" d="M66.062,12.16H58.9v3.579c-.322,8.625-1.682,14.028-5.762,14.028H52.32V27.334h.394c2.648,0,3.328-5.654,3.579-12.454V9.87H69.068v19.9H66.241Z" transform="translate(134.916 25.452)"/><path class="b" d="M68.22,9.83l7.479,19.9H72.693L71.118,25.4H62.172l-1.539,4.33H57.77l7.372-19.9Zm2,13.205L66.645,12.657,63.066,23.035Z" transform="translate(148.97 25.348)"/><path class="b" d="M66.341,32.9H63.55V13h2.791V28.784L77.077,13h2.791V32.9H77.077V17.189Zm5.4-21.007c-3.149,0-4.688-1.4-4.974-3.292h1.968c0,1.038,1.181,1.646,2.9,1.646S74.358,9.6,74.572,8.6h2.111c-.215,1.9-1.825,3.292-5.082,3.292" transform="translate(163.875 22.177)"/><path class="b" d="M85.612,29.727H82.821V20.709H72.371v9.018H69.58V9.83h2.791v8.446h10.45V9.83h2.791Z" transform="translate(179.424 25.348)"/><g class="c" transform="translate(145.044 62.233)"><rect class="d" width="119.671" height="9.734"/></g></svg>