<svg width="170" height="37" viewBox="0 0 170 37" fill="none" xmlns="http://www.w3.org/2000/svg">
<path d="M39.0277 0.572693H0.567871V36.4275L39.0277 0.572693Z" fill="#44C8F5"/>
<path d="M19.7942 0.572727H0.566895V18.5084L19.7942 0.572727Z" fill="#231F20"/>
<path d="M92.7328 8.35509L87.7124 28.6379H96.5826L101.599 8.35509H92.7328Z" fill="#00A0E4"/>
<path d="M72.4744 20.1105H70.4401L73.72 14.2592L74.7838 20.1105H72.4744ZM71.2123 8.35296L59.8047 28.6348H65.6713L67.5648 25.2541H75.7091L76.3159 28.6348H84.9746L81.2943 8.35296H71.2123Z" fill="#00A0E4"/>
<path d="M133.241 8.35509L128.234 28.6379H137.102L142.11 8.35509H133.241Z" fill="#00A0E4"/>
<path d="M129.277 8.35509H120.188L112.58 14.9898L114.241 8.35509H105.739L100.732 28.6379H109.207L110.938 21.6359L115.47 28.6379H125.728L118.13 18.0156L129.277 8.35509Z" fill="#00A0E4"/>
<path d="M52.8446 17.5725C52.8446 17.5725 52.2685 24.1605 46.713 24.1605H43.5698L46.3382 13.2206H49.1909C50.2116 13.2268 53.166 13.4945 52.8446 17.5725ZM52.3948 8.36443L50.1007 8.35717H39.0022L33.9951 28.6317H45.0156L49.3757 28.6379C55.5144 28.6379 61.5556 24.0204 61.5556 16.9478C61.5556 8.62591 52.3948 8.36443 52.3948 8.36443Z" fill="#00A0E4"/>
<path d="M163.294 8.35198L160.336 20.2953L156.394 8.35198H146.53L141.519 28.6379H147.653L150.64 16.5898L154.593 28.6379H164.415L169.434 8.35198H163.294Z" fill="#00A0E4"/>
</svg>
